<?xml version="1.0" encoding="UTF-8" standalone="no"?>
<!DOCTYPE svg PUBLIC "-//W3C//DTD SVG 1.1//EN"
 "http://www.w3.org/Graphics/SVG/1.1/DTD/svg11.dtd">
<!-- Generated by graphviz version 2.38.0 (20140413.2041)
 -->
<!-- Title: controllers_diagram Pages: 1 -->
<svg width="1521pt" height="1572pt"
 viewBox="0.00 0.00 1520.85 1572.47" xmlns="http://www.w3.org/2000/svg" xmlns:xlink="http://www.w3.org/1999/xlink">
<g id="graph0" class="graph" transform="scale(1 1) rotate(0) translate(808.896 763.469)">
<title>controllers_diagram</title>
<polygon fill="none" stroke="none" points="-808.896,809 -808.896,-763.469 711.952,-763.469 711.952,809 -808.896,809"/>
<!-- _diagram_info -->
<g id="node1" class="node"><title>_diagram_info</title>
<text text-anchor="start" x="8" y="741.4" font-family="Times,serif" font-size="13.00">Controllers diagram</text>
<text text-anchor="start" x="8" y="755.4" font-family="Times,serif" font-size="13.00">Date: Feb 12 2016 &#45; 01:39</text>
<text text-anchor="start" x="8" y="769.4" font-family="Times,serif" font-size="13.00">Migration version: 20160105065503</text>
<text text-anchor="start" x="8" y="783.4" font-family="Times,serif" font-size="13.00">Generated by RailRoady 1.4.2</text>
<text text-anchor="start" x="8" y="797.4" font-family="Times,serif" font-size="13.00">http://railroady.prestonlee.com</text>
</g>
<!-- KategorisController -->
<g id="node2" class="node"><title>KategorisController</title>
<path fill="none" stroke="black" d="M-422.354,58.675C-422.354,58.675 -321.354,58.675 -321.354,58.675 -315.354,58.675 -309.354,52.675 -309.354,46.675 -309.354,46.675 -309.354,-142.325 -309.354,-142.325 -309.354,-148.325 -315.354,-154.325 -321.354,-154.325 -321.354,-154.325 -422.354,-154.325 -422.354,-154.325 -428.354,-154.325 -434.354,-148.325 -434.354,-142.325 -434.354,-142.325 -434.354,46.675 -434.354,46.675 -434.354,52.675 -428.354,58.675 -422.354,58.675"/>
<text text-anchor="middle" x="-371.854" y="-139.125" font-family="Times,serif" font-size="14.00">KategorisController</text>
<polyline fill="none" stroke="black" points="-434.354,-131.325 -309.354,-131.325 "/>
<text text-anchor="start" x="-426.354" y="-116.125" font-family="Times,serif" font-size="14.00">create</text>
<text text-anchor="start" x="-426.354" y="-101.125" font-family="Times,serif" font-size="14.00">destroy</text>
<text text-anchor="start" x="-426.354" y="-86.125" font-family="Times,serif" font-size="14.00">edit</text>
<text text-anchor="start" x="-426.354" y="-71.125" font-family="Times,serif" font-size="14.00">index</text>
<text text-anchor="start" x="-426.354" y="-56.125" font-family="Times,serif" font-size="14.00">new</text>
<text text-anchor="start" x="-426.354" y="-41.125" font-family="Times,serif" font-size="14.00">show</text>
<text text-anchor="start" x="-426.354" y="-26.125" font-family="Times,serif" font-size="14.00">update</text>
<polyline fill="none" stroke="black" points="-434.354,-18.325 -309.354,-18.325 "/>
<polyline fill="none" stroke="black" points="-434.354,5.67501 -309.354,5.67501 "/>
<text text-anchor="start" x="-426.354" y="20.875" font-family="Times,serif" font-size="14.00">_layout</text>
<text text-anchor="start" x="-426.354" y="35.875" font-family="Times,serif" font-size="14.00">kategori_params</text>
<text text-anchor="start" x="-426.354" y="50.875" font-family="Times,serif" font-size="14.00">set_kategori</text>
</g>
<!-- ReviewsController -->
<g id="node3" class="node"><title>ReviewsController</title>
<path fill="none" stroke="black" d="M139.376,229.197C139.376,229.197 234.376,229.197 234.376,229.197 240.376,229.197 246.376,223.197 246.376,217.197 246.376,217.197 246.376,103.197 246.376,103.197 246.376,97.1965 240.376,91.1965 234.376,91.1965 234.376,91.1965 139.376,91.1965 139.376,91.1965 133.376,91.1965 127.376,97.1965 127.376,103.197 127.376,103.197 127.376,217.197 127.376,217.197 127.376,223.197 133.376,229.197 139.376,229.197"/>
<text text-anchor="middle" x="186.876" y="106.397" font-family="Times,serif" font-size="14.00">ReviewsController</text>
<polyline fill="none" stroke="black" points="127.376,114.197 246.376,114.197 "/>
<text text-anchor="start" x="135.376" y="129.397" font-family="Times,serif" font-size="14.00">create</text>
<text text-anchor="start" x="135.376" y="144.397" font-family="Times,serif" font-size="14.00">destroy</text>
<polyline fill="none" stroke="black" points="127.376,152.197 246.376,152.197 "/>
<polyline fill="none" stroke="black" points="127.376,176.197 246.376,176.197 "/>
<text text-anchor="start" x="135.376" y="191.397" font-family="Times,serif" font-size="14.00">_layout</text>
<text text-anchor="start" x="135.376" y="206.397" font-family="Times,serif" font-size="14.00">correct_user</text>
<text text-anchor="start" x="135.376" y="221.397" font-family="Times,serif" font-size="14.00">review_params</text>
</g>
<!-- UsersController -->
<g id="node4" class="node"><title>UsersController</title>
<path fill="none" stroke="black" d="M-734.762,611.184C-734.762,611.184 -655.762,611.184 -655.762,611.184 -649.762,611.184 -643.762,605.184 -643.762,599.184 -643.762,599.184 -643.762,500.184 -643.762,500.184 -643.762,494.184 -649.762,488.184 -655.762,488.184 -655.762,488.184 -734.762,488.184 -734.762,488.184 -740.762,488.184 -746.762,494.184 -746.762,500.184 -746.762,500.184 -746.762,599.184 -746.762,599.184 -746.762,605.184 -740.762,611.184 -734.762,611.184"/>
<text text-anchor="middle" x="-695.262" y="503.384" font-family="Times,serif" font-size="14.00">UsersController</text>
<polyline fill="none" stroke="black" points="-746.762,511.184 -643.762,511.184 "/>
<text text-anchor="start" x="-738.762" y="526.384" font-family="Times,serif" font-size="14.00">index</text>
<text text-anchor="start" x="-738.762" y="541.384" font-family="Times,serif" font-size="14.00">show</text>
<polyline fill="none" stroke="black" points="-746.762,549.184 -643.762,549.184 "/>
<polyline fill="none" stroke="black" points="-746.762,573.184 -643.762,573.184 "/>
<text text-anchor="start" x="-738.762" y="588.384" font-family="Times,serif" font-size="14.00">_layout</text>
<text text-anchor="start" x="-738.762" y="603.384" font-family="Times,serif" font-size="14.00">set_user</text>
</g>
<!-- SaransController -->
<g id="node5" class="node"><title>SaransController</title>
<path fill="none" stroke="black" d="M-727.271,-510.06C-727.271,-510.06 -643.271,-510.06 -643.271,-510.06 -637.271,-510.06 -631.271,-516.06 -631.271,-522.06 -631.271,-522.06 -631.271,-711.06 -631.271,-711.06 -631.271,-717.06 -637.271,-723.06 -643.271,-723.06 -643.271,-723.06 -727.271,-723.06 -727.271,-723.06 -733.271,-723.06 -739.271,-717.06 -739.271,-711.06 -739.271,-711.06 -739.271,-522.06 -739.271,-522.06 -739.271,-516.06 -733.271,-510.06 -727.271,-510.06"/>
<text text-anchor="middle" x="-685.271" y="-707.86" font-family="Times,serif" font-size="14.00">SaransController</text>
<polyline fill="none" stroke="black" points="-739.271,-700.06 -631.271,-700.06 "/>
<text text-anchor="start" x="-731.271" y="-684.86" font-family="Times,serif" font-size="14.00">create</text>
<text text-anchor="start" x="-731.271" y="-669.86" font-family="Times,serif" font-size="14.00">destroy</text>
<text text-anchor="start" x="-731.271" y="-654.86" font-family="Times,serif" font-size="14.00">edit</text>
<text text-anchor="start" x="-731.271" y="-639.86" font-family="Times,serif" font-size="14.00">index</text>
<text text-anchor="start" x="-731.271" y="-624.86" font-family="Times,serif" font-size="14.00">new</text>
<text text-anchor="start" x="-731.271" y="-609.86" font-family="Times,serif" font-size="14.00">show</text>
<text text-anchor="start" x="-731.271" y="-594.86" font-family="Times,serif" font-size="14.00">update</text>
<polyline fill="none" stroke="black" points="-739.271,-587.06 -631.271,-587.06 "/>
<polyline fill="none" stroke="black" points="-739.271,-563.06 -631.271,-563.06 "/>
<text text-anchor="start" x="-731.271" y="-547.86" font-family="Times,serif" font-size="14.00">_layout</text>
<text text-anchor="start" x="-731.271" y="-532.86" font-family="Times,serif" font-size="14.00">saran_params</text>
<text text-anchor="start" x="-731.271" y="-517.86" font-family="Times,serif" font-size="14.00">set_saran</text>
</g>
<!-- GuidesController -->
<g id="node6" class="node"><title>GuidesController</title>
<path fill="none" stroke="black" d="M-305.475,-254.387C-305.475,-254.387 -219.475,-254.387 -219.475,-254.387 -213.475,-254.387 -207.475,-260.387 -207.475,-266.387 -207.475,-266.387 -207.475,-395.387 -207.475,-395.387 -207.475,-401.387 -213.475,-407.387 -219.475,-407.387 -219.475,-407.387 -305.475,-407.387 -305.475,-407.387 -311.475,-407.387 -317.475,-401.387 -317.475,-395.387 -317.475,-395.387 -317.475,-266.387 -317.475,-266.387 -317.475,-260.387 -311.475,-254.387 -305.475,-254.387"/>
<text text-anchor="middle" x="-262.475" y="-392.187" font-family="Times,serif" font-size="14.00">GuidesController</text>
<polyline fill="none" stroke="black" points="-317.475,-384.387 -207.475,-384.387 "/>
<text text-anchor="start" x="-309.475" y="-369.187" font-family="Times,serif" font-size="14.00">dislike</text>
<text text-anchor="start" x="-309.475" y="-354.187" font-family="Times,serif" font-size="14.00">index</text>
<text text-anchor="start" x="-309.475" y="-339.187" font-family="Times,serif" font-size="14.00">like</text>
<text text-anchor="start" x="-309.475" y="-324.187" font-family="Times,serif" font-size="14.00">show</text>
<polyline fill="none" stroke="black" points="-317.475,-316.387 -207.475,-316.387 "/>
<polyline fill="none" stroke="black" points="-317.475,-292.387 -207.475,-292.387 "/>
<text text-anchor="start" x="-309.475" y="-277.187" font-family="Times,serif" font-size="14.00">_layout</text>
<text text-anchor="start" x="-309.475" y="-262.187" font-family="Times,serif" font-size="14.00">set_guide</text>
</g>
<!-- WisatasController -->
<g id="node7" class="node"><title>WisatasController</title>
<path fill="none" stroke="black" d="M-745.703,-112.208C-745.703,-112.208 -653.703,-112.208 -653.703,-112.208 -647.703,-112.208 -641.703,-118.208 -641.703,-124.208 -641.703,-124.208 -641.703,-358.208 -641.703,-358.208 -641.703,-364.208 -647.703,-370.208 -653.703,-370.208 -653.703,-370.208 -745.703,-370.208 -745.703,-370.208 -751.703,-370.208 -757.703,-364.208 -757.703,-358.208 -757.703,-358.208 -757.703,-124.208 -757.703,-124.208 -757.703,-118.208 -751.703,-112.208 -745.703,-112.208"/>
<text text-anchor="middle" x="-699.703" y="-355.008" font-family="Times,serif" font-size="14.00">WisatasController</text>
<polyline fill="none" stroke="black" points="-757.703,-347.208 -641.703,-347.208 "/>
<text text-anchor="start" x="-749.703" y="-332.008" font-family="Times,serif" font-size="14.00">album</text>
<text text-anchor="start" x="-749.703" y="-317.008" font-family="Times,serif" font-size="14.00">create</text>
<text text-anchor="start" x="-749.703" y="-302.008" font-family="Times,serif" font-size="14.00">destroy</text>
<text text-anchor="start" x="-749.703" y="-287.008" font-family="Times,serif" font-size="14.00">dislike</text>
<text text-anchor="start" x="-749.703" y="-272.008" font-family="Times,serif" font-size="14.00">edit</text>
<text text-anchor="start" x="-749.703" y="-257.008" font-family="Times,serif" font-size="14.00">index</text>
<text text-anchor="start" x="-749.703" y="-242.008" font-family="Times,serif" font-size="14.00">like</text>
<text text-anchor="start" x="-749.703" y="-227.008" font-family="Times,serif" font-size="14.00">new</text>
<text text-anchor="start" x="-749.703" y="-212.008" font-family="Times,serif" font-size="14.00">show</text>
<text text-anchor="start" x="-749.703" y="-197.008" font-family="Times,serif" font-size="14.00">update</text>
<polyline fill="none" stroke="black" points="-757.703,-189.208 -641.703,-189.208 "/>
<polyline fill="none" stroke="black" points="-757.703,-165.208 -641.703,-165.208 "/>
<text text-anchor="start" x="-749.703" y="-150.008" font-family="Times,serif" font-size="14.00">_layout</text>
<text text-anchor="start" x="-749.703" y="-135.008" font-family="Times,serif" font-size="14.00">set_wisata</text>
<text text-anchor="start" x="-749.703" y="-120.008" font-family="Times,serif" font-size="14.00">wisata_params</text>
</g>
<!-- StaticPagesController -->
<g id="node8" class="node"><title>StaticPagesController</title>
<path fill="none" stroke="black" d="M-792.896,204.559C-792.896,204.559 -682.896,204.559 -682.896,204.559 -676.896,204.559 -670.896,198.559 -670.896,192.559 -670.896,192.559 -670.896,48.5589 -670.896,48.5589 -670.896,42.5589 -676.896,36.5589 -682.896,36.5589 -682.896,36.5589 -792.896,36.5589 -792.896,36.5589 -798.896,36.5589 -804.896,42.5589 -804.896,48.5589 -804.896,48.5589 -804.896,192.559 -804.896,192.559 -804.896,198.559 -798.896,204.559 -792.896,204.559"/>
<text text-anchor="middle" x="-737.896" y="51.7589" font-family="Times,serif" font-size="14.00">StaticPagesController</text>
<polyline fill="none" stroke="black" points="-804.896,59.5589 -670.896,59.5589 "/>
<text text-anchor="start" x="-796.896" y="74.7589" font-family="Times,serif" font-size="14.00">about</text>
<text text-anchor="start" x="-796.896" y="89.7589" font-family="Times,serif" font-size="14.00">contact</text>
<text text-anchor="start" x="-796.896" y="104.759" font-family="Times,serif" font-size="14.00">help</text>
<text text-anchor="start" x="-796.896" y="119.759" font-family="Times,serif" font-size="14.00">home</text>
<text text-anchor="start" x="-796.896" y="134.759" font-family="Times,serif" font-size="14.00">popular_location</text>
<text text-anchor="start" x="-796.896" y="149.759" font-family="Times,serif" font-size="14.00">privacy</text>
<polyline fill="none" stroke="black" points="-804.896,157.559 -670.896,157.559 "/>
<polyline fill="none" stroke="black" points="-804.896,181.559 -670.896,181.559 "/>
<text text-anchor="start" x="-796.896" y="196.759" font-family="Times,serif" font-size="14.00">_layout</text>
</g>
<!-- OmniauthCallbacksController -->
<g id="node9" class="node"><title>OmniauthCallbacksController</title>
<path fill="none" stroke="black" d="M431.963,-561.005C431.963,-561.005 587.963,-561.005 587.963,-561.005 593.963,-561.005 599.963,-567.005 599.963,-573.005 599.963,-573.005 599.963,-657.005 599.963,-657.005 599.963,-663.005 593.963,-669.005 587.963,-669.005 587.963,-669.005 431.963,-669.005 431.963,-669.005 425.963,-669.005 419.963,-663.005 419.963,-657.005 419.963,-657.005 419.963,-573.005 419.963,-573.005 419.963,-567.005 425.963,-561.005 431.963,-561.005"/>
<text text-anchor="middle" x="509.963" y="-653.805" font-family="Times,serif" font-size="14.00">OmniauthCallbacksController</text>
<polyline fill="none" stroke="black" points="419.963,-646.005 599.963,-646.005 "/>
<text text-anchor="start" x="427.963" y="-630.805" font-family="Times,serif" font-size="14.00">all</text>
<text text-anchor="start" x="427.963" y="-615.805" font-family="Times,serif" font-size="14.00">twitter</text>
<polyline fill="none" stroke="black" points="419.963,-608.005 599.963,-608.005 "/>
<polyline fill="none" stroke="black" points="419.963,-584.005 599.963,-584.005 "/>
<text text-anchor="start" x="427.963" y="-568.805" font-family="Times,serif" font-size="14.00">_layout</text>
</g>
<!-- BeritasController -->
<g id="node10" class="node"><title>BeritasController</title>
<path fill="none" stroke="black" d="M-454.401,363.918C-454.401,363.918 -368.401,363.918 -368.401,363.918 -362.401,363.918 -356.401,357.918 -356.401,351.918 -356.401,351.918 -356.401,162.918 -356.401,162.918 -356.401,156.918 -362.401,150.918 -368.401,150.918 -368.401,150.918 -454.401,150.918 -454.401,150.918 -460.401,150.918 -466.401,156.918 -466.401,162.918 -466.401,162.918 -466.401,351.918 -466.401,351.918 -466.401,357.918 -460.401,363.918 -454.401,363.918"/>
<text text-anchor="middle" x="-411.401" y="166.118" font-family="Times,serif" font-size="14.00">BeritasController</text>
<polyline fill="none" stroke="black" points="-466.401,173.918 -356.401,173.918 "/>
<text text-anchor="start" x="-458.401" y="189.118" font-family="Times,serif" font-size="14.00">create</text>
<text text-anchor="start" x="-458.401" y="204.118" font-family="Times,serif" font-size="14.00">destroy</text>
<text text-anchor="start" x="-458.401" y="219.118" font-family="Times,serif" font-size="14.00">edit</text>
<text text-anchor="start" x="-458.401" y="234.118" font-family="Times,serif" font-size="14.00">index</text>
<text text-anchor="start" x="-458.401" y="249.118" font-family="Times,serif" font-size="14.00">new</text>
<text text-anchor="start" x="-458.401" y="264.118" font-family="Times,serif" font-size="14.00">show</text>
<text text-anchor="start" x="-458.401" y="279.118" font-family="Times,serif" font-size="14.00">update</text>
<polyline fill="none" stroke="black" points="-466.401,286.918 -356.401,286.918 "/>
<polyline fill="none" stroke="black" points="-466.401,310.918 -356.401,310.918 "/>
<text text-anchor="start" x="-458.401" y="326.118" font-family="Times,serif" font-size="14.00">_layout</text>
<text text-anchor="start" x="-458.401" y="341.118" font-family="Times,serif" font-size="14.00">berita_params</text>
<text text-anchor="start" x="-458.401" y="356.118" font-family="Times,serif" font-size="14.00">set_berita</text>
</g>
<!-- GuideWisatasController -->
<g id="node11" class="node"><title>GuideWisatasController</title>
<path fill="none" stroke="black" d="M46.6843,610.667C46.6843,610.667 171.684,610.667 171.684,610.667 177.684,610.667 183.684,604.667 183.684,598.667 183.684,598.667 183.684,514.667 183.684,514.667 183.684,508.667 177.684,502.667 171.684,502.667 171.684,502.667 46.6843,502.667 46.6843,502.667 40.6843,502.667 34.6843,508.667 34.6843,514.667 34.6843,514.667 34.6843,598.667 34.6843,598.667 34.6843,604.667 40.6843,610.667 46.6843,610.667"/>
<text text-anchor="middle" x="109.184" y="517.867" font-family="Times,serif" font-size="14.00">GuideWisatasController</text>
<polyline fill="none" stroke="black" points="34.6843,525.667 183.684,525.667 "/>
<text text-anchor="start" x="42.6843" y="540.867" font-family="Times,serif" font-size="14.00">create</text>
<text text-anchor="start" x="42.6843" y="555.867" font-family="Times,serif" font-size="14.00">destroy</text>
<polyline fill="none" stroke="black" points="34.6843,563.667 183.684,563.667 "/>
<polyline fill="none" stroke="black" points="34.6843,587.667 183.684,587.667 "/>
<text text-anchor="start" x="42.6843" y="602.867" font-family="Times,serif" font-size="14.00">_layout</text>
</g>
<!-- DaerahsController -->
<g id="node12" class="node"><title>DaerahsController</title>
<path fill="none" stroke="black" d="M-306.594,689.827C-306.594,689.827 -214.594,689.827 -214.594,689.827 -208.594,689.827 -202.594,683.827 -202.594,677.827 -202.594,677.827 -202.594,488.827 -202.594,488.827 -202.594,482.827 -208.594,476.827 -214.594,476.827 -214.594,476.827 -306.594,476.827 -306.594,476.827 -312.594,476.827 -318.594,482.827 -318.594,488.827 -318.594,488.827 -318.594,677.827 -318.594,677.827 -318.594,683.827 -312.594,689.827 -306.594,689.827"/>
<text text-anchor="middle" x="-260.594" y="492.027" font-family="Times,serif" font-size="14.00">DaerahsController</text>
<polyline fill="none" stroke="black" points="-318.594,499.827 -202.594,499.827 "/>
<text text-anchor="start" x="-310.594" y="515.027" font-family="Times,serif" font-size="14.00">create</text>
<text text-anchor="start" x="-310.594" y="530.027" font-family="Times,serif" font-size="14.00">destroy</text>
<text text-anchor="start" x="-310.594" y="545.027" font-family="Times,serif" font-size="14.00">edit</text>
<text text-anchor="start" x="-310.594" y="560.027" font-family="Times,serif" font-size="14.00">index</text>
<text text-anchor="start" x="-310.594" y="575.027" font-family="Times,serif" font-size="14.00">new</text>
<text text-anchor="start" x="-310.594" y="590.027" font-family="Times,serif" font-size="14.00">show</text>
<text text-anchor="start" x="-310.594" y="605.027" font-family="Times,serif" font-size="14.00">update</text>
<polyline fill="none" stroke="black" points="-318.594,612.827 -202.594,612.827 "/>
<polyline fill="none" stroke="black" points="-318.594,636.827 -202.594,636.827 "/>
<text text-anchor="start" x="-310.594" y="652.027" font-family="Times,serif" font-size="14.00">_layout</text>
<text text-anchor="start" x="-310.594" y="667.027" font-family="Times,serif" font-size="14.00">daerah_params</text>
<text text-anchor="start" x="-310.594" y="682.027" font-family="Times,serif" font-size="14.00">set_daerah</text>
</g>
<!-- ApplicationController -->
<g id="node13" class="node"><title>ApplicationController</title>
<path fill="none" stroke="black" d="M-184.087,259.665C-184.087,259.665 -43.0874,259.665 -43.0874,259.665 -37.0874,259.665 -31.0874,253.665 -31.0874,247.665 -31.0874,247.665 -31.0874,178.665 -31.0874,178.665 -31.0874,172.665 -37.0874,166.665 -43.0874,166.665 -43.0874,166.665 -184.087,166.665 -184.087,166.665 -190.087,166.665 -196.087,172.665 -196.087,178.665 -196.087,178.665 -196.087,247.665 -196.087,247.665 -196.087,253.665 -190.087,259.665 -184.087,259.665"/>
<text text-anchor="middle" x="-113.587" y="181.865" font-family="Times,serif" font-size="14.00">ApplicationController</text>
<polyline fill="none" stroke="black" points="-196.087,189.665 -31.0874,189.665 "/>
<polyline fill="none" stroke="black" points="-196.087,213.665 -31.0874,213.665 "/>
<text text-anchor="start" x="-188.087" y="228.865" font-family="Times,serif" font-size="14.00">devise_parameter_sanitizer</text>
<polyline fill="none" stroke="black" points="-196.087,236.665 -31.0874,236.665 "/>
<text text-anchor="start" x="-188.087" y="251.865" font-family="Times,serif" font-size="14.00">_layout</text>
</g>
<!-- ApplicationController&#45;&gt;KategorisController -->
<g id="edge1" class="edge"><title>ApplicationController&#45;&gt;KategorisController</title>
<path fill="none" stroke="black" d="M-159.76,166.505C-201.401,124.425 -263.001,62.1752 -309.1,15.5902"/>
</g>
<!-- ApplicationController&#45;&gt;ReviewsController -->
<g id="edge2" class="edge"><title>ApplicationController&#45;&gt;ReviewsController</title>
<path fill="none" stroke="black" d="M-31.087,198.621C18.9468,189.8 81.6575,178.745 126.953,170.76"/>
</g>
<!-- ApplicationController&#45;&gt;UsersController -->
<g id="edge3" class="edge"><title>ApplicationController&#45;&gt;UsersController</title>
<path fill="none" stroke="black" d="M-182.906,259.811C-230.261,291.153 -294.777,332.833 -353.201,367.118 -454.22,426.398 -575.94,489.435 -643.552,523.736"/>
</g>
<!-- ApplicationController&#45;&gt;SaransController -->
<g id="edge4" class="edge"><title>ApplicationController&#45;&gt;SaransController</title>
<path fill="none" stroke="black" d="M-133.895,166.629C-166.157,94.6245 -233,-47.0105 -306.154,-157.525 -408.418,-312.017 -553.343,-475.212 -631.05,-559.18"/>
</g>
<!-- ApplicationController&#45;&gt;GuidesController -->
<g id="edge5" class="edge"><title>ApplicationController&#45;&gt;GuidesController</title>
<path fill="none" stroke="black" d="M-128.531,166.563C-136.079,142.609 -145.232,112.903 -152.878,86.1638 -186.683,-32.0606 -222.225,-170.259 -243.36,-254.134"/>
</g>
<!-- ApplicationController&#45;&gt;WisatasController -->
<g id="edge6" class="edge"><title>ApplicationController&#45;&gt;WisatasController</title>
<path fill="none" stroke="black" d="M-196.361,185.583C-265.146,160.174 -363.4,117.931 -437.554,61.875 -518.858,0.413792 -592.958,-89.9591 -641.473,-156.026"/>
</g>
<!-- ApplicationController&#45;&gt;StaticPagesController -->
<g id="edge7" class="edge"><title>ApplicationController&#45;&gt;StaticPagesController</title>
<path fill="none" stroke="black" d="M-196.135,186.312C-241.921,172.513 -300.167,156.743 -353.201,147.718 -463.429,128.96 -593.552,123.118 -670.705,121.323"/>
</g>
<!-- ApplicationController&#45;&gt;BeritasController -->
<g id="edge9" class="edge"><title>ApplicationController&#45;&gt;BeritasController</title>
<path fill="none" stroke="black" d="M-196.15,225.433C-247.104,233.004 -311.085,242.512 -356.001,249.186"/>
</g>
<!-- ApplicationController&#45;&gt;GuideWisatasController -->
<g id="edge10" class="edge"><title>ApplicationController&#45;&gt;GuideWisatasController</title>
<path fill="none" stroke="black" d="M-83.3116,259.849C-42.3283,323.043 30.6522,435.575 74.0168,502.441"/>
</g>
<!-- ApplicationController&#45;&gt;DaerahsController -->
<g id="edge11" class="edge"><title>ApplicationController&#45;&gt;DaerahsController</title>
<path fill="none" stroke="black" d="M-132.057,259.671C-153.534,313.749 -189.677,404.758 -218.177,476.521"/>
</g>
<!-- DeviseController -->
<g id="node20" class="node"><title>DeviseController</title>
<path fill="none" stroke="black" d="M-137.678,82.9638C-137.678,82.9638 29.3221,82.9638 29.3221,82.9638 35.3221,82.9638 41.3221,76.9638 41.3221,70.9638 41.3221,70.9638 41.3221,-282.036 41.3221,-282.036 41.3221,-288.036 35.3221,-294.036 29.3221,-294.036 29.3221,-294.036 -137.678,-294.036 -137.678,-294.036 -143.678,-294.036 -149.678,-288.036 -149.678,-282.036 -149.678,-282.036 -149.678,70.9638 -149.678,70.9638 -149.678,76.9638 -143.678,82.9638 -137.678,82.9638"/>
<text text-anchor="middle" x="-54.1779" y="-278.836" font-family="Times,serif" font-size="14.00">DeviseController</text>
<polyline fill="none" stroke="black" points="-149.678,-271.036 41.3221,-271.036 "/>
<text text-anchor="start" x="-141.678" y="-255.836" font-family="Times,serif" font-size="14.00">_prefixes</text>
<polyline fill="none" stroke="black" points="-149.678,-248.036 41.3221,-248.036 "/>
<text text-anchor="start" x="-141.678" y="-232.836" font-family="Times,serif" font-size="14.00">assert_is_devise_resource!</text>
<text text-anchor="start" x="-141.678" y="-217.836" font-family="Times,serif" font-size="14.00">clean_up_passwords</text>
<text text-anchor="start" x="-141.678" y="-202.836" font-family="Times,serif" font-size="14.00">devise_i18n_options</text>
<text text-anchor="start" x="-141.678" y="-187.836" font-family="Times,serif" font-size="14.00">devise_mapping</text>
<text text-anchor="start" x="-141.678" y="-172.836" font-family="Times,serif" font-size="14.00">find_message</text>
<text text-anchor="start" x="-141.678" y="-157.836" font-family="Times,serif" font-size="14.00">navigational_formats</text>
<text text-anchor="start" x="-141.678" y="-142.836" font-family="Times,serif" font-size="14.00">require_no_authentication</text>
<text text-anchor="start" x="-141.678" y="-127.836" font-family="Times,serif" font-size="14.00">resource</text>
<text text-anchor="start" x="-141.678" y="-112.836" font-family="Times,serif" font-size="14.00">resource=</text>
<text text-anchor="start" x="-141.678" y="-97.8362" font-family="Times,serif" font-size="14.00">resource_class</text>
<text text-anchor="start" x="-141.678" y="-82.8362" font-family="Times,serif" font-size="14.00">resource_name</text>
<text text-anchor="start" x="-141.678" y="-67.8362" font-family="Times,serif" font-size="14.00">resource_params</text>
<text text-anchor="start" x="-141.678" y="-52.8362" font-family="Times,serif" font-size="14.00">respond_with_navigational</text>
<text text-anchor="start" x="-141.678" y="-37.8362" font-family="Times,serif" font-size="14.00">scope_name</text>
<text text-anchor="start" x="-141.678" y="-22.8362" font-family="Times,serif" font-size="14.00">set_flash_message</text>
<text text-anchor="start" x="-141.678" y="-7.83621" font-family="Times,serif" font-size="14.00">set_minimum_password_length</text>
<text text-anchor="start" x="-141.678" y="7.16379" font-family="Times,serif" font-size="14.00">signed_in_resource</text>
<text text-anchor="start" x="-141.678" y="22.1638" font-family="Times,serif" font-size="14.00">successfully_sent?</text>
<text text-anchor="start" x="-141.678" y="37.1638" font-family="Times,serif" font-size="14.00">translation_scope</text>
<text text-anchor="start" x="-141.678" y="52.1638" font-family="Times,serif" font-size="14.00">unknown_action!</text>
<polyline fill="none" stroke="black" points="-149.678,59.9638 41.3221,59.9638 "/>
<text text-anchor="start" x="-141.678" y="75.1638" font-family="Times,serif" font-size="14.00">_layout</text>
</g>
<!-- ApplicationController&#45;&gt;DeviseController -->
<g id="edge18" class="edge"><title>ApplicationController&#45;&gt;DeviseController</title>
<path fill="none" stroke="black" d="M-104.885,166.482C-100.599,143.487 -95.1174,114.083 -89.3515,83.1517"/>
</g>
<!-- Devise::PasswordsController -->
<g id="node14" class="node"><title>Devise::PasswordsController</title>
<path fill="none" stroke="black" d="M417.952,-117.148C417.952,-117.148 695.952,-117.148 695.952,-117.148 701.952,-117.148 707.952,-123.148 707.952,-129.148 707.952,-129.148 707.952,-302.148 707.952,-302.148 707.952,-308.148 701.952,-314.148 695.952,-314.148 695.952,-314.148 417.952,-314.148 417.952,-314.148 411.952,-314.148 405.952,-308.148 405.952,-302.148 405.952,-302.148 405.952,-129.148 405.952,-129.148 405.952,-123.148 411.952,-117.148 417.952,-117.148"/>
<text text-anchor="middle" x="556.952" y="-298.948" font-family="Times,serif" font-size="14.00">Devise::PasswordsController</text>
<polyline fill="none" stroke="black" points="405.952,-291.148 707.952,-291.148 "/>
<text text-anchor="start" x="413.952" y="-275.948" font-family="Times,serif" font-size="14.00">create</text>
<text text-anchor="start" x="413.952" y="-260.948" font-family="Times,serif" font-size="14.00">edit</text>
<text text-anchor="start" x="413.952" y="-245.948" font-family="Times,serif" font-size="14.00">new</text>
<text text-anchor="start" x="413.952" y="-230.948" font-family="Times,serif" font-size="14.00">update</text>
<polyline fill="none" stroke="black" points="405.952,-223.148 707.952,-223.148 "/>
<text text-anchor="start" x="413.952" y="-207.948" font-family="Times,serif" font-size="14.00">after_resetting_password_path_for</text>
<text text-anchor="start" x="413.952" y="-192.948" font-family="Times,serif" font-size="14.00">after_sending_reset_password_instructions_path_for</text>
<text text-anchor="start" x="413.952" y="-177.948" font-family="Times,serif" font-size="14.00">assert_reset_token_passed</text>
<text text-anchor="start" x="413.952" y="-162.948" font-family="Times,serif" font-size="14.00">translation_scope</text>
<text text-anchor="start" x="413.952" y="-147.948" font-family="Times,serif" font-size="14.00">unlockable?</text>
<polyline fill="none" stroke="black" points="405.952,-140.148 707.952,-140.148 "/>
<text text-anchor="start" x="413.952" y="-124.948" font-family="Times,serif" font-size="14.00">_layout</text>
</g>
<!-- Devise::ConfirmationsController -->
<g id="node15" class="node"><title>Devise::ConfirmationsController</title>
<path fill="none" stroke="black" d="M64.4595,-149.142C64.4595,-149.142 340.46,-149.142 340.46,-149.142 346.46,-149.142 352.46,-155.142 352.46,-161.142 352.46,-161.142 352.46,-289.142 352.46,-289.142 352.46,-295.142 346.46,-301.142 340.46,-301.142 340.46,-301.142 64.4595,-301.142 64.4595,-301.142 58.4595,-301.142 52.4595,-295.142 52.4595,-289.142 52.4595,-289.142 52.4595,-161.142 52.4595,-161.142 52.4595,-155.142 58.4595,-149.142 64.4595,-149.142"/>
<text text-anchor="middle" x="202.46" y="-285.942" font-family="Times,serif" font-size="14.00">Devise::ConfirmationsController</text>
<polyline fill="none" stroke="black" points="52.4595,-278.142 352.46,-278.142 "/>
<text text-anchor="start" x="60.4595" y="-262.942" font-family="Times,serif" font-size="14.00">create</text>
<text text-anchor="start" x="60.4595" y="-247.942" font-family="Times,serif" font-size="14.00">new</text>
<text text-anchor="start" x="60.4595" y="-232.942" font-family="Times,serif" font-size="14.00">show</text>
<polyline fill="none" stroke="black" points="52.4595,-225.142 352.46,-225.142 "/>
<text text-anchor="start" x="60.4595" y="-209.942" font-family="Times,serif" font-size="14.00">after_confirmation_path_for</text>
<text text-anchor="start" x="60.4595" y="-194.942" font-family="Times,serif" font-size="14.00">after_resending_confirmation_instructions_path_for</text>
<text text-anchor="start" x="60.4595" y="-179.942" font-family="Times,serif" font-size="14.00">translation_scope</text>
<polyline fill="none" stroke="black" points="52.4595,-172.142 352.46,-172.142 "/>
<text text-anchor="start" x="60.4595" y="-156.942" font-family="Times,serif" font-size="14.00">_layout</text>
</g>
<!-- Devise::SessionsController -->
<g id="node16" class="node"><title>Devise::SessionsController</title>
<path fill="none" stroke="black" d="M-334.574,-546.969C-334.574,-546.969 -194.574,-546.969 -194.574,-546.969 -188.574,-546.969 -182.574,-552.969 -182.574,-558.969 -182.574,-558.969 -182.574,-746.969 -182.574,-746.969 -182.574,-752.969 -188.574,-758.969 -194.574,-758.969 -194.574,-758.969 -334.574,-758.969 -334.574,-758.969 -340.574,-758.969 -346.574,-752.969 -346.574,-746.969 -346.574,-746.969 -346.574,-558.969 -346.574,-558.969 -346.574,-552.969 -340.574,-546.969 -334.574,-546.969"/>
<text text-anchor="middle" x="-264.574" y="-743.769" font-family="Times,serif" font-size="14.00">Devise::SessionsController</text>
<polyline fill="none" stroke="black" points="-346.574,-735.969 -182.574,-735.969 "/>
<text text-anchor="start" x="-338.574" y="-720.769" font-family="Times,serif" font-size="14.00">create</text>
<text text-anchor="start" x="-338.574" y="-705.769" font-family="Times,serif" font-size="14.00">destroy</text>
<text text-anchor="start" x="-338.574" y="-690.769" font-family="Times,serif" font-size="14.00">new</text>
<polyline fill="none" stroke="black" points="-346.574,-682.969 -182.574,-682.969 "/>
<text text-anchor="start" x="-338.574" y="-667.769" font-family="Times,serif" font-size="14.00">auth_options</text>
<text text-anchor="start" x="-338.574" y="-652.769" font-family="Times,serif" font-size="14.00">serialize_options</text>
<text text-anchor="start" x="-338.574" y="-637.769" font-family="Times,serif" font-size="14.00">sign_in_params</text>
<text text-anchor="start" x="-338.574" y="-622.769" font-family="Times,serif" font-size="14.00">translation_scope</text>
<polyline fill="none" stroke="black" points="-346.574,-614.969 -182.574,-614.969 "/>
<text text-anchor="start" x="-338.574" y="-599.769" font-family="Times,serif" font-size="14.00">_layout</text>
<text text-anchor="start" x="-338.574" y="-584.769" font-family="Times,serif" font-size="14.00">all_signed_out?</text>
<text text-anchor="start" x="-338.574" y="-569.769" font-family="Times,serif" font-size="14.00">respond_to_on_destroy</text>
<text text-anchor="start" x="-338.574" y="-554.769" font-family="Times,serif" font-size="14.00">verify_signed_out_user</text>
</g>
<!-- Devise::UnlocksController -->
<g id="node17" class="node"><title>Devise::UnlocksController</title>
<path fill="none" stroke="black" d="M403.036,621.145C403.036,621.145 635.036,621.145 635.036,621.145 641.036,621.145 647.036,615.145 647.036,609.145 647.036,609.145 647.036,481.145 647.036,481.145 647.036,475.145 641.036,469.145 635.036,469.145 635.036,469.145 403.036,469.145 403.036,469.145 397.036,469.145 391.036,475.145 391.036,481.145 391.036,481.145 391.036,609.145 391.036,609.145 391.036,615.145 397.036,621.145 403.036,621.145"/>
<text text-anchor="middle" x="519.036" y="484.345" font-family="Times,serif" font-size="14.00">Devise::UnlocksController</text>
<polyline fill="none" stroke="black" points="391.036,492.145 647.036,492.145 "/>
<text text-anchor="start" x="399.036" y="507.345" font-family="Times,serif" font-size="14.00">create</text>
<text text-anchor="start" x="399.036" y="522.345" font-family="Times,serif" font-size="14.00">new</text>
<text text-anchor="start" x="399.036" y="537.345" font-family="Times,serif" font-size="14.00">show</text>
<polyline fill="none" stroke="black" points="391.036,545.145 647.036,545.145 "/>
<text text-anchor="start" x="399.036" y="560.345" font-family="Times,serif" font-size="14.00">after_sending_unlock_instructions_path_for</text>
<text text-anchor="start" x="399.036" y="575.345" font-family="Times,serif" font-size="14.00">after_unlock_path_for</text>
<text text-anchor="start" x="399.036" y="590.345" font-family="Times,serif" font-size="14.00">translation_scope</text>
<polyline fill="none" stroke="black" points="391.036,598.145 647.036,598.145 "/>
<text text-anchor="start" x="399.036" y="613.345" font-family="Times,serif" font-size="14.00">_layout</text>
</g>
<!-- Devise::RegistrationsController -->
<g id="node18" class="node"><title>Devise::RegistrationsController</title>
<path fill="none" stroke="black" d="M457.709,300.272C457.709,300.272 626.709,300.272 626.709,300.272 632.709,300.272 638.709,294.272 638.709,288.272 638.709,288.272 638.709,-4.72816 638.709,-4.72816 638.709,-10.7282 632.709,-16.7282 626.709,-16.7282 626.709,-16.7282 457.709,-16.7282 457.709,-16.7282 451.709,-16.7282 445.709,-10.7282 445.709,-4.72816 445.709,-4.72816 445.709,288.272 445.709,288.272 445.709,294.272 451.709,300.272 457.709,300.272"/>
<text text-anchor="middle" x="542.209" y="-1.52816" font-family="Times,serif" font-size="14.00">Devise::RegistrationsController</text>
<polyline fill="none" stroke="black" points="445.709,6.27184 638.709,6.27184 "/>
<text text-anchor="start" x="453.709" y="21.4718" font-family="Times,serif" font-size="14.00">cancel</text>
<text text-anchor="start" x="453.709" y="36.4718" font-family="Times,serif" font-size="14.00">create</text>
<text text-anchor="start" x="453.709" y="51.4718" font-family="Times,serif" font-size="14.00">destroy</text>
<text text-anchor="start" x="453.709" y="66.4718" font-family="Times,serif" font-size="14.00">edit</text>
<text text-anchor="start" x="453.709" y="81.4718" font-family="Times,serif" font-size="14.00">new</text>
<text text-anchor="start" x="453.709" y="96.4718" font-family="Times,serif" font-size="14.00">update</text>
<polyline fill="none" stroke="black" points="445.709,104.272 638.709,104.272 "/>
<text text-anchor="start" x="453.709" y="119.472" font-family="Times,serif" font-size="14.00">account_update_params</text>
<text text-anchor="start" x="453.709" y="134.472" font-family="Times,serif" font-size="14.00">after_inactive_sign_up_path_for</text>
<text text-anchor="start" x="453.709" y="149.472" font-family="Times,serif" font-size="14.00">after_sign_up_path_for</text>
<text text-anchor="start" x="453.709" y="164.472" font-family="Times,serif" font-size="14.00">after_update_path_for</text>
<text text-anchor="start" x="453.709" y="179.472" font-family="Times,serif" font-size="14.00">authenticate_scope!</text>
<text text-anchor="start" x="453.709" y="194.472" font-family="Times,serif" font-size="14.00">build_resource</text>
<text text-anchor="start" x="453.709" y="209.472" font-family="Times,serif" font-size="14.00">sign_up</text>
<text text-anchor="start" x="453.709" y="224.472" font-family="Times,serif" font-size="14.00">sign_up_params</text>
<text text-anchor="start" x="453.709" y="239.472" font-family="Times,serif" font-size="14.00">translation_scope</text>
<text text-anchor="start" x="453.709" y="254.472" font-family="Times,serif" font-size="14.00">update_needs_confirmation?</text>
<text text-anchor="start" x="453.709" y="269.472" font-family="Times,serif" font-size="14.00">update_resource</text>
<polyline fill="none" stroke="black" points="445.709,277.272 638.709,277.272 "/>
<text text-anchor="start" x="453.709" y="292.472" font-family="Times,serif" font-size="14.00">_layout</text>
</g>
<!-- Devise::OmniauthCallbacksController -->
<g id="node19" class="node"><title>Devise::OmniauthCallbacksController</title>
<path fill="none" stroke="black" d="M-6.26782,-524.945C-6.26782,-524.945 194.732,-524.945 194.732,-524.945 200.732,-524.945 206.732,-530.945 206.732,-536.945 206.732,-536.945 206.732,-664.945 206.732,-664.945 206.732,-670.945 200.732,-676.945 194.732,-676.945 194.732,-676.945 -6.26782,-676.945 -6.26782,-676.945 -12.2678,-676.945 -18.2678,-670.945 -18.2678,-664.945 -18.2678,-664.945 -18.2678,-536.945 -18.2678,-536.945 -18.2678,-530.945 -12.2678,-524.945 -6.26782,-524.945"/>
<text text-anchor="middle" x="94.2322" y="-661.745" font-family="Times,serif" font-size="14.00">Devise::OmniauthCallbacksController</text>
<polyline fill="none" stroke="black" points="-18.2678,-653.945 206.732,-653.945 "/>
<text text-anchor="start" x="-10.2678" y="-638.745" font-family="Times,serif" font-size="14.00">failure</text>
<text text-anchor="start" x="-10.2678" y="-623.745" font-family="Times,serif" font-size="14.00">passthru</text>
<polyline fill="none" stroke="black" points="-18.2678,-615.945 206.732,-615.945 "/>
<text text-anchor="start" x="-10.2678" y="-600.745" font-family="Times,serif" font-size="14.00">after_omniauth_failure_path_for</text>
<text text-anchor="start" x="-10.2678" y="-585.745" font-family="Times,serif" font-size="14.00">failed_strategy</text>
<text text-anchor="start" x="-10.2678" y="-570.745" font-family="Times,serif" font-size="14.00">failure_message</text>
<text text-anchor="start" x="-10.2678" y="-555.745" font-family="Times,serif" font-size="14.00">translation_scope</text>
<polyline fill="none" stroke="black" points="-18.2678,-547.945 206.732,-547.945 "/>
<text text-anchor="start" x="-10.2678" y="-532.745" font-family="Times,serif" font-size="14.00">_layout</text>
</g>
<!-- Devise::OmniauthCallbacksController&#45;&gt;OmniauthCallbacksController -->
<g id="edge8" class="edge"><title>Devise::OmniauthCallbacksController&#45;&gt;OmniauthCallbacksController</title>
<path fill="none" stroke="black" d="M206.735,-604.75C273.585,-607.011 357.237,-609.84 419.735,-611.954"/>
</g>
<!-- DeviseController&#45;&gt;Devise::PasswordsController -->
<g id="edge12" class="edge"><title>DeviseController&#45;&gt;Devise::PasswordsController</title>
<path fill="none" stroke="black" d="M41.6371,-108.622C125.335,-112.821 249.679,-122.707 355.66,-145.942 372.096,-149.545 389.049,-154.07 405.815,-159.074"/>
</g>
<!-- DeviseController&#45;&gt;Devise::ConfirmationsController -->
<g id="edge13" class="edge"><title>DeviseController&#45;&gt;Devise::ConfirmationsController</title>
<path fill="none" stroke="black" d="M41.3844,-150.073C44.9472,-151.733 48.5461,-153.411 52.1691,-155.099"/>
</g>
<!-- DeviseController&#45;&gt;Devise::SessionsController -->
<g id="edge14" class="edge"><title>DeviseController&#45;&gt;Devise::SessionsController</title>
<path fill="none" stroke="black" d="M-126.732,-294.315C-159.17,-378.717 -196.205,-475.08 -223.713,-546.652"/>
</g>
<!-- DeviseController&#45;&gt;Devise::UnlocksController -->
<g id="edge15" class="edge"><title>DeviseController&#45;&gt;Devise::UnlocksController</title>
<path fill="none" stroke="black" d="M27.9288,83.3589C54.694,134.45 87.1871,187.877 124.176,232.397 202.556,326.733 313.568,411.573 397.933,469.009"/>
</g>
<!-- DeviseController&#45;&gt;Devise::RegistrationsController -->
<g id="edge16" class="edge"><title>DeviseController&#45;&gt;Devise::RegistrationsController</title>
<path fill="none" stroke="black" d="M41.642,-65.8019C152.605,-19.7881 334.357,55.5803 445.638,101.726"/>
</g>
<!-- DeviseController&#45;&gt;Devise::OmniauthCallbacksController -->
<g id="edge17" class="edge"><title>DeviseController&#45;&gt;Devise::OmniauthCallbacksController</title>
<path fill="none" stroke="black" d="M2.35298,-294.242C26.3951,-374.497 53.0654,-463.526 71.4504,-524.896"/>
</g>
</g>
</svg>
