<?xml version="1.0" encoding="UTF-8" standalone="no"?>
<!DOCTYPE svg PUBLIC "-//W3C//DTD SVG 1.1//EN"
 "http://www.w3.org/Graphics/SVG/1.1/DTD/svg11.dtd">
<!-- Generated by graphviz version 2.38.0 (20140413.2041)
 -->
<!-- Title: models_diagram Pages: 1 -->
<svg width="1243pt" height="1042pt"
 viewBox="0.00 0.00 1243.24 1042.00" xmlns="http://www.w3.org/2000/svg" xmlns:xlink="http://www.w3.org/1999/xlink">
<g id="graph0" class="graph" transform="scale(1 1) rotate(0) translate(4 1038)">
<title>models_diagram</title>
<polygon fill="none" stroke="none" points="-4,4 -4,-1038 1239.24,-1038 1239.24,4 -4,4"/>
<!-- _diagram_info -->
<g id="node1" class="node"><title>_diagram_info</title>
<text text-anchor="start" x="477.741" y="-1019.6" font-family="Times,serif" font-size="13.00">Models diagram</text>
<text text-anchor="start" x="477.741" y="-1005.6" font-family="Times,serif" font-size="13.00">Date: Feb 12 2016 &#45; 01:39</text>
<text text-anchor="start" x="477.741" y="-991.6" font-family="Times,serif" font-size="13.00">Migration version: 20160105065503</text>
<text text-anchor="start" x="477.741" y="-977.6" font-family="Times,serif" font-size="13.00">Generated by RailRoady 1.4.2</text>
<text text-anchor="start" x="477.741" y="-963.6" font-family="Times,serif" font-size="13.00">http://railroady.prestonlee.com</text>
</g>
<!-- Kategori -->
<g id="node2" class="node"><title>Kategori</title>
<path fill="none" stroke="black" d="M682.241,-715C682.241,-715 789.241,-715 789.241,-715 795.241,-715 801.241,-721 801.241,-727 801.241,-727 801.241,-809 801.241,-809 801.241,-815 795.241,-821 789.241,-821 789.241,-821 682.241,-821 682.241,-821 676.241,-821 670.241,-815 670.241,-809 670.241,-809 670.241,-727 670.241,-727 670.241,-721 676.241,-715 682.241,-715"/>
<text text-anchor="middle" x="735.741" y="-805.8" font-family="Times,serif" font-size="14.00">Kategori</text>
<polyline fill="none" stroke="black" points="670.241,-798 801.241,-798 "/>
<text text-anchor="start" x="678.241" y="-782.8" font-family="Times,serif" font-size="14.00">id :INTEGER</text>
<text text-anchor="start" x="678.241" y="-767.8" font-family="Times,serif" font-size="14.00">nama :varchar</text>
<text text-anchor="start" x="678.241" y="-752.8" font-family="Times,serif" font-size="14.00">foto :varchar</text>
<text text-anchor="start" x="678.241" y="-737.8" font-family="Times,serif" font-size="14.00">created_at :datetime</text>
<text text-anchor="start" x="678.241" y="-722.8" font-family="Times,serif" font-size="14.00">updated_at :datetime</text>
</g>
<!-- Wisata -->
<g id="node8" class="node"><title>Wisata</title>
<path fill="none" stroke="black" d="M463.241,-226C463.241,-226 630.241,-226 630.241,-226 636.241,-226 642.241,-232 642.241,-238 642.241,-238 642.241,-545 642.241,-545 642.241,-551 636.241,-557 630.241,-557 630.241,-557 463.241,-557 463.241,-557 457.241,-557 451.241,-551 451.241,-545 451.241,-545 451.241,-238 451.241,-238 451.241,-232 457.241,-226 463.241,-226"/>
<text text-anchor="middle" x="546.741" y="-541.8" font-family="Times,serif" font-size="14.00">Wisata</text>
<polyline fill="none" stroke="black" points="451.241,-534 642.241,-534 "/>
<text text-anchor="start" x="459.241" y="-518.8" font-family="Times,serif" font-size="14.00">id :INTEGER</text>
<text text-anchor="start" x="459.241" y="-503.8" font-family="Times,serif" font-size="14.00">nama :varchar</text>
<text text-anchor="start" x="459.241" y="-488.8" font-family="Times,serif" font-size="14.00">alamat :text</text>
<text text-anchor="start" x="459.241" y="-473.8" font-family="Times,serif" font-size="14.00">deskripsi :text</text>
<text text-anchor="start" x="459.241" y="-458.8" font-family="Times,serif" font-size="14.00">daerah_id :integer</text>
<text text-anchor="start" x="459.241" y="-443.8" font-family="Times,serif" font-size="14.00">kategori_id :integer</text>
<text text-anchor="start" x="459.241" y="-428.8" font-family="Times,serif" font-size="14.00">telp :varchar</text>
<text text-anchor="start" x="459.241" y="-413.8" font-family="Times,serif" font-size="14.00">created_at :datetime</text>
<text text-anchor="start" x="459.241" y="-398.8" font-family="Times,serif" font-size="14.00">updated_at :datetime</text>
<text text-anchor="start" x="459.241" y="-383.8" font-family="Times,serif" font-size="14.00">foto :varchar</text>
<text text-anchor="start" x="459.241" y="-368.8" font-family="Times,serif" font-size="14.00">latitude :float</text>
<text text-anchor="start" x="459.241" y="-353.8" font-family="Times,serif" font-size="14.00">longitude :float</text>
<text text-anchor="start" x="459.241" y="-338.8" font-family="Times,serif" font-size="14.00">harga :integer</text>
<text text-anchor="start" x="459.241" y="-323.8" font-family="Times,serif" font-size="14.00">cached_votes_total :integer</text>
<text text-anchor="start" x="459.241" y="-308.8" font-family="Times,serif" font-size="14.00">cached_votes_score :integer</text>
<text text-anchor="start" x="459.241" y="-293.8" font-family="Times,serif" font-size="14.00">cached_votes_up :integer</text>
<text text-anchor="start" x="459.241" y="-278.8" font-family="Times,serif" font-size="14.00">cached_votes_down :integer</text>
<text text-anchor="start" x="459.241" y="-263.8" font-family="Times,serif" font-size="14.00">cached_weighted_score :integer</text>
<text text-anchor="start" x="459.241" y="-248.8" font-family="Times,serif" font-size="14.00">cached_weighted_total :integer</text>
<text text-anchor="start" x="459.241" y="-233.8" font-family="Times,serif" font-size="14.00">cached_weighted_average :float</text>
</g>
<!-- Kategori&#45;&gt;Wisata -->
<g id="edge1" class="edge"><title>Kategori&#45;&gt;Wisata</title>
<path fill="none" stroke="#146ace" d="M706.685,-707.583C693.125,-679.988 676.708,-646.77 661.741,-617 653.449,-600.508 644.77,-583.36 636.056,-566.22"/>
<ellipse fill="none" stroke="#146ace" cx="708.485" cy="-711.249" rx="4.00002" ry="4.00002"/>
<polygon fill="#146ace" stroke="#146ace" points="636.033,-566.173 635.509,-555.22 633.766,-561.717 631.498,-557.261 631.498,-557.261 631.498,-557.261 633.766,-561.717 627.487,-559.301 636.033,-566.173 636.033,-566.173"/>
</g>
<!-- Admin -->
<g id="node3" class="node"><title>Admin</title>
<path fill="none" stroke="black" d="M96.7408,-655C96.7408,-655 272.741,-655 272.741,-655 278.741,-655 284.741,-661 284.741,-667 284.741,-667 284.741,-869 284.741,-869 284.741,-875 278.741,-881 272.741,-881 272.741,-881 96.7408,-881 96.7408,-881 90.7408,-881 84.7408,-875 84.7408,-869 84.7408,-869 84.7408,-667 84.7408,-667 84.7408,-661 90.7408,-655 96.7408,-655"/>
<text text-anchor="middle" x="184.741" y="-865.8" font-family="Times,serif" font-size="14.00">Admin</text>
<polyline fill="none" stroke="black" points="84.7408,-858 284.741,-858 "/>
<text text-anchor="start" x="92.7408" y="-842.8" font-family="Times,serif" font-size="14.00">id :INTEGER</text>
<text text-anchor="start" x="92.7408" y="-827.8" font-family="Times,serif" font-size="14.00">email :varchar</text>
<text text-anchor="start" x="92.7408" y="-812.8" font-family="Times,serif" font-size="14.00">encrypted_password :varchar</text>
<text text-anchor="start" x="92.7408" y="-797.8" font-family="Times,serif" font-size="14.00">reset_password_token :varchar</text>
<text text-anchor="start" x="92.7408" y="-782.8" font-family="Times,serif" font-size="14.00">reset_password_sent_at :datetime</text>
<text text-anchor="start" x="92.7408" y="-767.8" font-family="Times,serif" font-size="14.00">remember_created_at :datetime</text>
<text text-anchor="start" x="92.7408" y="-752.8" font-family="Times,serif" font-size="14.00">sign_in_count :integer</text>
<text text-anchor="start" x="92.7408" y="-737.8" font-family="Times,serif" font-size="14.00">current_sign_in_at :datetime</text>
<text text-anchor="start" x="92.7408" y="-722.8" font-family="Times,serif" font-size="14.00">last_sign_in_at :datetime</text>
<text text-anchor="start" x="92.7408" y="-707.8" font-family="Times,serif" font-size="14.00">current_sign_in_ip :varchar</text>
<text text-anchor="start" x="92.7408" y="-692.8" font-family="Times,serif" font-size="14.00">last_sign_in_ip :varchar</text>
<text text-anchor="start" x="92.7408" y="-677.8" font-family="Times,serif" font-size="14.00">created_at :datetime</text>
<text text-anchor="start" x="92.7408" y="-662.8" font-family="Times,serif" font-size="14.00">updated_at :datetime</text>
</g>
<!-- GuideWisata -->
<g id="node4" class="node"><title>GuideWisata</title>
<path fill="none" stroke="black" d="M281.241,-23C281.241,-23 388.241,-23 388.241,-23 394.241,-23 400.241,-29 400.241,-35 400.241,-35 400.241,-117 400.241,-117 400.241,-123 394.241,-129 388.241,-129 388.241,-129 281.241,-129 281.241,-129 275.241,-129 269.241,-123 269.241,-117 269.241,-117 269.241,-35 269.241,-35 269.241,-29 275.241,-23 281.241,-23"/>
<text text-anchor="middle" x="334.741" y="-113.8" font-family="Times,serif" font-size="14.00">GuideWisata</text>
<polyline fill="none" stroke="black" points="269.241,-106 400.241,-106 "/>
<text text-anchor="start" x="277.241" y="-90.8" font-family="Times,serif" font-size="14.00">id :INTEGER</text>
<text text-anchor="start" x="277.241" y="-75.8" font-family="Times,serif" font-size="14.00">guide_id :integer</text>
<text text-anchor="start" x="277.241" y="-60.8" font-family="Times,serif" font-size="14.00">wisata_id :integer</text>
<text text-anchor="start" x="277.241" y="-45.8" font-family="Times,serif" font-size="14.00">created_at :datetime</text>
<text text-anchor="start" x="277.241" y="-30.8" font-family="Times,serif" font-size="14.00">updated_at :datetime</text>
</g>
<!-- Daerah -->
<g id="node5" class="node"><title>Daerah</title>
<path fill="none" stroke="black" d="M533.241,-715C533.241,-715 640.241,-715 640.241,-715 646.241,-715 652.241,-721 652.241,-727 652.241,-727 652.241,-809 652.241,-809 652.241,-815 646.241,-821 640.241,-821 640.241,-821 533.241,-821 533.241,-821 527.241,-821 521.241,-815 521.241,-809 521.241,-809 521.241,-727 521.241,-727 521.241,-721 527.241,-715 533.241,-715"/>
<text text-anchor="middle" x="586.741" y="-805.8" font-family="Times,serif" font-size="14.00">Daerah</text>
<polyline fill="none" stroke="black" points="521.241,-798 652.241,-798 "/>
<text text-anchor="start" x="529.241" y="-782.8" font-family="Times,serif" font-size="14.00">id :INTEGER</text>
<text text-anchor="start" x="529.241" y="-767.8" font-family="Times,serif" font-size="14.00">nama :varchar</text>
<text text-anchor="start" x="529.241" y="-752.8" font-family="Times,serif" font-size="14.00">foto :varchar</text>
<text text-anchor="start" x="529.241" y="-737.8" font-family="Times,serif" font-size="14.00">created_at :datetime</text>
<text text-anchor="start" x="529.241" y="-722.8" font-family="Times,serif" font-size="14.00">updated_at :datetime</text>
</g>
<!-- Daerah&#45;&gt;Wisata -->
<g id="edge5" class="edge"><title>Daerah&#45;&gt;Wisata</title>
<path fill="none" stroke="#cffdb5" d="M580.306,-706.754C576.239,-668.68 570.757,-617.356 565.404,-567.234"/>
<ellipse fill="none" stroke="#cffdb5" cx="580.754" cy="-710.95" rx="4" ry="4"/>
<polygon fill="#cffdb5" stroke="#cffdb5" points="565.398,-567.173 568.81,-556.752 564.866,-562.201 564.335,-557.229 564.335,-557.229 564.335,-557.229 564.866,-562.201 559.861,-557.707 565.398,-567.173 565.398,-567.173"/>
</g>
<!-- Review -->
<g id="node6" class="node"><title>Review</title>
<path fill="none" stroke="black" d="M691.241,-0.5C691.241,-0.5 798.241,-0.5 798.241,-0.5 804.241,-0.5 810.241,-6.5 810.241,-12.5 810.241,-12.5 810.241,-139.5 810.241,-139.5 810.241,-145.5 804.241,-151.5 798.241,-151.5 798.241,-151.5 691.241,-151.5 691.241,-151.5 685.241,-151.5 679.241,-145.5 679.241,-139.5 679.241,-139.5 679.241,-12.5 679.241,-12.5 679.241,-6.5 685.241,-0.5 691.241,-0.5"/>
<text text-anchor="middle" x="744.741" y="-136.3" font-family="Times,serif" font-size="14.00">Review</text>
<polyline fill="none" stroke="black" points="679.241,-128.5 810.241,-128.5 "/>
<text text-anchor="start" x="687.241" y="-113.3" font-family="Times,serif" font-size="14.00">id :INTEGER</text>
<text text-anchor="start" x="687.241" y="-98.3" font-family="Times,serif" font-size="14.00">content :text</text>
<text text-anchor="start" x="687.241" y="-83.3" font-family="Times,serif" font-size="14.00">user_id :integer</text>
<text text-anchor="start" x="687.241" y="-68.3" font-family="Times,serif" font-size="14.00">wisata_id :integer</text>
<text text-anchor="start" x="687.241" y="-53.3" font-family="Times,serif" font-size="14.00">created_at :datetime</text>
<text text-anchor="start" x="687.241" y="-38.3" font-family="Times,serif" font-size="14.00">updated_at :datetime</text>
<text text-anchor="start" x="687.241" y="-23.3" font-family="Times,serif" font-size="14.00">foto :varchar</text>
<text text-anchor="start" x="687.241" y="-8.3" font-family="Times,serif" font-size="14.00">guide_id :integer</text>
</g>
<!-- Guide -->
<g id="node7" class="node"><title>Guide</title>
<path fill="none" stroke="black" d="M314.741,-617.5C314.741,-617.5 490.741,-617.5 490.741,-617.5 496.741,-617.5 502.741,-623.5 502.741,-629.5 502.741,-629.5 502.741,-906.5 502.741,-906.5 502.741,-912.5 496.741,-918.5 490.741,-918.5 490.741,-918.5 314.741,-918.5 314.741,-918.5 308.741,-918.5 302.741,-912.5 302.741,-906.5 302.741,-906.5 302.741,-629.5 302.741,-629.5 302.741,-623.5 308.741,-617.5 314.741,-617.5"/>
<text text-anchor="middle" x="402.741" y="-903.3" font-family="Times,serif" font-size="14.00">Guide</text>
<polyline fill="none" stroke="black" points="302.741,-895.5 502.741,-895.5 "/>
<text text-anchor="start" x="310.741" y="-880.3" font-family="Times,serif" font-size="14.00">id :INTEGER</text>
<text text-anchor="start" x="310.741" y="-865.3" font-family="Times,serif" font-size="14.00">email :varchar</text>
<text text-anchor="start" x="310.741" y="-850.3" font-family="Times,serif" font-size="14.00">encrypted_password :varchar</text>
<text text-anchor="start" x="310.741" y="-835.3" font-family="Times,serif" font-size="14.00">reset_password_token :varchar</text>
<text text-anchor="start" x="310.741" y="-820.3" font-family="Times,serif" font-size="14.00">reset_password_sent_at :datetime</text>
<text text-anchor="start" x="310.741" y="-805.3" font-family="Times,serif" font-size="14.00">remember_created_at :datetime</text>
<text text-anchor="start" x="310.741" y="-790.3" font-family="Times,serif" font-size="14.00">sign_in_count :integer</text>
<text text-anchor="start" x="310.741" y="-775.3" font-family="Times,serif" font-size="14.00">current_sign_in_at :datetime</text>
<text text-anchor="start" x="310.741" y="-760.3" font-family="Times,serif" font-size="14.00">last_sign_in_at :datetime</text>
<text text-anchor="start" x="310.741" y="-745.3" font-family="Times,serif" font-size="14.00">current_sign_in_ip :varchar</text>
<text text-anchor="start" x="310.741" y="-730.3" font-family="Times,serif" font-size="14.00">last_sign_in_ip :varchar</text>
<text text-anchor="start" x="310.741" y="-715.3" font-family="Times,serif" font-size="14.00">nama :varchar</text>
<text text-anchor="start" x="310.741" y="-700.3" font-family="Times,serif" font-size="14.00">telp :varchar</text>
<text text-anchor="start" x="310.741" y="-685.3" font-family="Times,serif" font-size="14.00">alamat :text</text>
<text text-anchor="start" x="310.741" y="-670.3" font-family="Times,serif" font-size="14.00">foto :varchar</text>
<text text-anchor="start" x="310.741" y="-655.3" font-family="Times,serif" font-size="14.00">created_at :datetime</text>
<text text-anchor="start" x="310.741" y="-640.3" font-family="Times,serif" font-size="14.00">updated_at :datetime</text>
<text text-anchor="start" x="310.741" y="-625.3" font-family="Times,serif" font-size="14.00">bio :text</text>
</g>
<!-- Guide&#45;&gt;GuideWisata -->
<g id="edge8" class="edge"><title>Guide&#45;&gt;GuideWisata</title>
<path fill="none" stroke="#a08cc0" d="M363.513,-609.448C361.71,-599.518 360.094,-589.643 358.741,-580 336.621,-422.329 333.827,-234.436 334.057,-139.111"/>
<ellipse fill="none" stroke="#a08cc0" cx="364.264" cy="-613.487" rx="4.00001" ry="4.00001"/>
<polygon fill="#a08cc0" stroke="#a08cc0" points="334.057,-139.066 338.593,-129.082 334.075,-134.066 334.093,-129.066 334.093,-129.066 334.093,-129.066 334.075,-134.066 329.593,-129.05 334.057,-139.066 334.057,-139.066"/>
</g>
<!-- Guide&#45;&gt;Review -->
<g id="edge10" class="edge"><title>Guide&#45;&gt;Review</title>
<path fill="none" stroke="#937856" d="M509.325,-619.395C510.456,-618.581 511.595,-617.782 512.741,-617 565.536,-580.95 610.778,-629.081 651.741,-580 710.309,-509.823 655.412,-256.573 684.741,-170 685.789,-166.906 686.962,-163.813 688.24,-160.735"/>
<ellipse fill="none" stroke="#937856" cx="506.125" cy="-621.808" rx="4.00002" ry="4.00002"/>
<polygon fill="#937856" stroke="#937856" points="688.266,-160.677 696.469,-153.399 690.315,-156.116 692.364,-151.555 692.364,-151.555 692.364,-151.555 690.315,-156.116 688.259,-149.711 688.266,-160.677 688.266,-160.677"/>
</g>
<!-- Guide&#45;&gt;Wisata -->
<g id="edge9" class="edge"><title>Guide&#45;&gt;Wisata</title>
<path fill="none" stroke="#74ee9e" d="M464.031,-607.603C469.235,-594.068 474.516,-580.334 479.762,-566.692"/>
<polygon fill="#74ee9e" stroke="#74ee9e" points="463.863,-608.039 456.074,-615.758 462.069,-612.706 460.274,-617.373 460.274,-617.373 460.274,-617.373 462.069,-612.706 464.474,-618.988 463.863,-608.039 463.863,-608.039"/>
<polygon fill="#74ee9e" stroke="#74ee9e" points="479.797,-566.601 487.586,-558.882 481.591,-561.934 483.386,-557.267 483.386,-557.267 483.386,-557.267 481.591,-561.934 479.186,-555.652 479.797,-566.601 479.797,-566.601"/>
</g>
<!-- ActsAsVotable::Vote -->
<g id="node13" class="node"><title>ActsAsVotable::Vote</title>
<ellipse fill="none" stroke="black" cx="546.741" cy="-76" rx="86.3847" ry="18"/>
<text text-anchor="middle" x="546.741" y="-72.3" font-family="Times,serif" font-size="14.00">ActsAsVotable::Vote</text>
</g>
<!-- Guide&#45;&gt;ActsAsVotable::Vote -->
<g id="edge11" class="edge"><title>Guide&#45;&gt;ActsAsVotable::Vote</title>
<path fill="none" stroke="#0daa8a" d="M383.784,-609.408C369.569,-467.941 357.669,-272.223 390.741,-203 413.984,-154.349 466.2,-118.447 503.826,-97.6756"/>
<ellipse fill="none" stroke="#0daa8a" cx="384.188" cy="-613.393" rx="4" ry="4"/>
<polygon fill="#0daa8a" stroke="#0daa8a" points="504.241,-97.4529 515.18,-96.6866 508.646,-95.0874 513.051,-92.722 513.051,-92.722 513.051,-92.722 508.646,-95.0874 510.922,-88.7574 504.241,-97.4529 504.241,-97.4529"/>
<text text-anchor="middle" x="417.741" y="-387.8" font-family="Times,serif" font-size="14.00">votes_for</text>
</g>
<!-- Wisata&#45;&gt;GuideWisata -->
<g id="edge14" class="edge"><title>Wisata&#45;&gt;GuideWisata</title>
<path fill="none" stroke="#6b42db" d="M447.6,-219.043C443.991,-213.597 440.366,-208.236 436.741,-203 421.396,-180.835 403.255,-157.617 386.557,-137.237"/>
<ellipse fill="none" stroke="#6b42db" cx="449.966" cy="-222.641" rx="4.00002" ry="4.00002"/>
<polygon fill="#6b42db" stroke="#6b42db" points="386.357,-136.995 383.466,-126.417 383.176,-133.138 379.994,-129.28 379.994,-129.28 379.994,-129.28 383.176,-133.138 376.523,-132.144 386.357,-136.995 386.357,-136.995"/>
</g>
<!-- Wisata&#45;&gt;Review -->
<g id="edge13" class="edge"><title>Wisata&#45;&gt;Review</title>
<path fill="none" stroke="#cbd3ef" d="M626.226,-218.496C635.845,-201.708 646.068,-185.261 656.741,-170 661.593,-163.061 666.95,-156.128 672.554,-149.352"/>
<ellipse fill="none" stroke="#cbd3ef" cx="624.113" cy="-222.229" rx="4.00002" ry="4.00002"/>
<polygon fill="#cbd3ef" stroke="#cbd3ef" points="672.762,-149.106 682.662,-144.39 675.996,-145.293 679.231,-141.48 679.231,-141.48 679.231,-141.48 675.996,-145.293 675.799,-138.569 672.762,-149.106 672.762,-149.106"/>
</g>
<!-- Wisata&#45;&gt;ActsAsVotable::Vote -->
<g id="edge15" class="edge"><title>Wisata&#45;&gt;ActsAsVotable::Vote</title>
<path fill="none" stroke="#1e79aa" d="M546.741,-217.806C546.741,-173.515 546.741,-130.939 546.741,-104.422"/>
<ellipse fill="none" stroke="#1e79aa" cx="546.741" cy="-221.946" rx="4" ry="4"/>
<polygon fill="#1e79aa" stroke="#1e79aa" points="546.741,-104.082 551.241,-94.0821 546.741,-99.0821 546.741,-94.0821 546.741,-94.0821 546.741,-94.0821 546.741,-99.0821 542.241,-94.0822 546.741,-104.082 546.741,-104.082"/>
<text text-anchor="middle" x="572.741" y="-173.8" font-family="Times,serif" font-size="14.00">votes_for</text>
</g>
<!-- User -->
<g id="node9" class="node"><title>User</title>
<path fill="none" stroke="black" d="M710.741,-203.5C710.741,-203.5 886.741,-203.5 886.741,-203.5 892.741,-203.5 898.741,-209.5 898.741,-215.5 898.741,-215.5 898.741,-567.5 898.741,-567.5 898.741,-573.5 892.741,-579.5 886.741,-579.5 886.741,-579.5 710.741,-579.5 710.741,-579.5 704.741,-579.5 698.741,-573.5 698.741,-567.5 698.741,-567.5 698.741,-215.5 698.741,-215.5 698.741,-209.5 704.741,-203.5 710.741,-203.5"/>
<text text-anchor="middle" x="798.741" y="-564.3" font-family="Times,serif" font-size="14.00">User</text>
<polyline fill="none" stroke="black" points="698.741,-556.5 898.741,-556.5 "/>
<text text-anchor="start" x="706.741" y="-541.3" font-family="Times,serif" font-size="14.00">id :INTEGER</text>
<text text-anchor="start" x="706.741" y="-526.3" font-family="Times,serif" font-size="14.00">email :varchar</text>
<text text-anchor="start" x="706.741" y="-511.3" font-family="Times,serif" font-size="14.00">encrypted_password :varchar</text>
<text text-anchor="start" x="706.741" y="-496.3" font-family="Times,serif" font-size="14.00">reset_password_token :varchar</text>
<text text-anchor="start" x="706.741" y="-481.3" font-family="Times,serif" font-size="14.00">reset_password_sent_at :datetime</text>
<text text-anchor="start" x="706.741" y="-466.3" font-family="Times,serif" font-size="14.00">remember_created_at :datetime</text>
<text text-anchor="start" x="706.741" y="-451.3" font-family="Times,serif" font-size="14.00">sign_in_count :integer</text>
<text text-anchor="start" x="706.741" y="-436.3" font-family="Times,serif" font-size="14.00">current_sign_in_at :datetime</text>
<text text-anchor="start" x="706.741" y="-421.3" font-family="Times,serif" font-size="14.00">last_sign_in_at :datetime</text>
<text text-anchor="start" x="706.741" y="-406.3" font-family="Times,serif" font-size="14.00">current_sign_in_ip :varchar</text>
<text text-anchor="start" x="706.741" y="-391.3" font-family="Times,serif" font-size="14.00">last_sign_in_ip :varchar</text>
<text text-anchor="start" x="706.741" y="-376.3" font-family="Times,serif" font-size="14.00">nama :varchar</text>
<text text-anchor="start" x="706.741" y="-361.3" font-family="Times,serif" font-size="14.00">username :varchar</text>
<text text-anchor="start" x="706.741" y="-346.3" font-family="Times,serif" font-size="14.00">foto :varchar</text>
<text text-anchor="start" x="706.741" y="-331.3" font-family="Times,serif" font-size="14.00">created_at :datetime</text>
<text text-anchor="start" x="706.741" y="-316.3" font-family="Times,serif" font-size="14.00">updated_at :datetime</text>
<text text-anchor="start" x="706.741" y="-301.3" font-family="Times,serif" font-size="14.00">bio :text</text>
<text text-anchor="start" x="706.741" y="-286.3" font-family="Times,serif" font-size="14.00">provider :varchar</text>
<text text-anchor="start" x="706.741" y="-271.3" font-family="Times,serif" font-size="14.00">uid :varchar</text>
<text text-anchor="start" x="706.741" y="-256.3" font-family="Times,serif" font-size="14.00">fotourl :varchar</text>
<text text-anchor="start" x="706.741" y="-241.3" font-family="Times,serif" font-size="14.00">token :varchar</text>
<text text-anchor="start" x="706.741" y="-226.3" font-family="Times,serif" font-size="14.00">secret :varchar</text>
<text text-anchor="start" x="706.741" y="-211.3" font-family="Times,serif" font-size="14.00">twitterlink :boolean</text>
</g>
<!-- User&#45;&gt;Review -->
<g id="edge17" class="edge"><title>User&#45;&gt;Review</title>
<path fill="none" stroke="#1a6c65" d="M765.094,-195.162C763.109,-183.639 761.175,-172.412 759.339,-161.753"/>
<ellipse fill="none" stroke="#1a6c65" cx="765.792" cy="-199.215" rx="4.00001" ry="4.00001"/>
<polygon fill="#1a6c65" stroke="#1a6c65" points="759.308,-161.571 762.045,-150.952 758.459,-156.644 757.611,-151.716 757.611,-151.716 757.611,-151.716 758.459,-156.644 753.176,-152.48 759.308,-161.571 759.308,-161.571"/>
</g>
<!-- User&#45;&gt;ActsAsVotable::Vote -->
<g id="edge18" class="edge"><title>User&#45;&gt;ActsAsVotable::Vote</title>
<path fill="none" stroke="#52be6b" d="M693.491,-255.26C679.532,-237.616 665.347,-219.832 651.741,-203 622.989,-167.432 588.983,-126.896 567.634,-101.628"/>
<ellipse fill="none" stroke="#52be6b" cx="696.142" cy="-258.614" rx="4.00002" ry="4.00002"/>
<polygon fill="#52be6b" stroke="#52be6b" points="567.628,-101.621 564.605,-91.0795 564.399,-97.8032 561.17,-93.9857 561.17,-93.9857 561.17,-93.9857 564.399,-97.8032 557.734,-96.8919 567.628,-101.621 567.628,-101.621"/>
<text text-anchor="middle" x="649.241" y="-173.8" font-family="Times,serif" font-size="14.00">votes</text>
</g>
<!-- Saran -->
<g id="node10" class="node"><title>Saran</title>
<path fill="none" stroke="black" d="M967.241,-707.5C967.241,-707.5 1074.24,-707.5 1074.24,-707.5 1080.24,-707.5 1086.24,-713.5 1086.24,-719.5 1086.24,-719.5 1086.24,-816.5 1086.24,-816.5 1086.24,-822.5 1080.24,-828.5 1074.24,-828.5 1074.24,-828.5 967.241,-828.5 967.241,-828.5 961.241,-828.5 955.241,-822.5 955.241,-816.5 955.241,-816.5 955.241,-719.5 955.241,-719.5 955.241,-713.5 961.241,-707.5 967.241,-707.5"/>
<text text-anchor="middle" x="1020.74" y="-813.3" font-family="Times,serif" font-size="14.00">Saran</text>
<polyline fill="none" stroke="black" points="955.241,-805.5 1086.24,-805.5 "/>
<text text-anchor="start" x="963.241" y="-790.3" font-family="Times,serif" font-size="14.00">id :INTEGER</text>
<text text-anchor="start" x="963.241" y="-775.3" font-family="Times,serif" font-size="14.00">nama :varchar</text>
<text text-anchor="start" x="963.241" y="-760.3" font-family="Times,serif" font-size="14.00">email :varchar</text>
<text text-anchor="start" x="963.241" y="-745.3" font-family="Times,serif" font-size="14.00">pesan :text</text>
<text text-anchor="start" x="963.241" y="-730.3" font-family="Times,serif" font-size="14.00">created_at :datetime</text>
<text text-anchor="start" x="963.241" y="-715.3" font-family="Times,serif" font-size="14.00">updated_at :datetime</text>
</g>
<!-- Berita -->
<g id="node11" class="node"><title>Berita</title>
<path fill="none" stroke="black" d="M1116.24,-707.5C1116.24,-707.5 1223.24,-707.5 1223.24,-707.5 1229.24,-707.5 1235.24,-713.5 1235.24,-719.5 1235.24,-719.5 1235.24,-816.5 1235.24,-816.5 1235.24,-822.5 1229.24,-828.5 1223.24,-828.5 1223.24,-828.5 1116.24,-828.5 1116.24,-828.5 1110.24,-828.5 1104.24,-822.5 1104.24,-816.5 1104.24,-816.5 1104.24,-719.5 1104.24,-719.5 1104.24,-713.5 1110.24,-707.5 1116.24,-707.5"/>
<text text-anchor="middle" x="1169.74" y="-813.3" font-family="Times,serif" font-size="14.00">Berita</text>
<polyline fill="none" stroke="black" points="1104.24,-805.5 1235.24,-805.5 "/>
<text text-anchor="start" x="1112.24" y="-790.3" font-family="Times,serif" font-size="14.00">id :INTEGER</text>
<text text-anchor="start" x="1112.24" y="-775.3" font-family="Times,serif" font-size="14.00">title :varchar</text>
<text text-anchor="start" x="1112.24" y="-760.3" font-family="Times,serif" font-size="14.00">content :text</text>
<text text-anchor="start" x="1112.24" y="-745.3" font-family="Times,serif" font-size="14.00">foto :varchar</text>
<text text-anchor="start" x="1112.24" y="-730.3" font-family="Times,serif" font-size="14.00">created_at :datetime</text>
<text text-anchor="start" x="1112.24" y="-715.3" font-family="Times,serif" font-size="14.00">updated_at :datetime</text>
</g>
<!-- ActiveRecord::Base -->
<g id="node12" class="node"><title>ActiveRecord::Base</title>
<ellipse fill="none" stroke="black" cx="782.741" cy="-995" rx="81.4863" ry="18"/>
<text text-anchor="middle" x="782.741" y="-991.3" font-family="Times,serif" font-size="14.00">ActiveRecord::Base</text>
</g>
<!-- ActiveRecord::Base&#45;&gt;Kategori -->
<g id="edge2" class="edge"><title>ActiveRecord::Base&#45;&gt;Kategori</title>
<path fill="none" stroke="black" d="M779.131,-976.718C772.274,-943.892 757.118,-871.337 746.666,-821.301"/>
</g>
<!-- ActiveRecord::Base&#45;&gt;Admin -->
<g id="edge3" class="edge"><title>ActiveRecord::Base&#45;&gt;Admin</title>
<path fill="none" stroke="black" d="M751.902,-978.195C734.892,-970.197 713.139,-961.121 692.741,-956 606.374,-934.315 371.131,-963.047 293.741,-919 276.955,-909.446 262.049,-896.131 249.065,-881.342"/>
</g>
<!-- ActiveRecord::Base&#45;&gt;GuideWisata -->
<g id="edge4" class="edge"><title>ActiveRecord::Base&#45;&gt;GuideWisata</title>
<path fill="none" stroke="black" d="M752.798,-978.263C735.695,-970.073 713.567,-960.793 692.741,-956 625.812,-940.597 122.613,-969.197 75.7408,-919 -141.89,-685.931 166.783,-273.982 288.822,-129.135"/>
</g>
<!-- ActiveRecord::Base&#45;&gt;Daerah -->
<g id="edge6" class="edge"><title>ActiveRecord::Base&#45;&gt;Daerah</title>
<path fill="none" stroke="black" d="M747.576,-978.723C721.264,-965.874 685.816,-945.378 661.741,-919 636.029,-890.828 616.992,-852.21 604.532,-821.214"/>
</g>
<!-- ActiveRecord::Base&#45;&gt;Review -->
<g id="edge7" class="edge"><title>ActiveRecord::Base&#45;&gt;Review</title>
<path fill="none" stroke="black" d="M814.529,-978.29C836.037,-965.64 862.501,-945.589 873.741,-919 935.761,-772.279 977.938,-345.989 907.741,-203 887.407,-161.582 846.177,-129.911 810.273,-108.681"/>
</g>
<!-- ActiveRecord::Base&#45;&gt;Guide -->
<g id="edge12" class="edge"><title>ActiveRecord::Base&#45;&gt;Guide</title>
<path fill="none" stroke="black" d="M749.984,-978.332C733.168,-970.763 712.178,-962.037 692.741,-956 614.743,-931.776 581.484,-963.1 512.741,-919 509.343,-916.82 506.015,-914.496 502.758,-912.046"/>
</g>
<!-- ActiveRecord::Base&#45;&gt;Wisata -->
<g id="edge16" class="edge"><title>ActiveRecord::Base&#45;&gt;Wisata</title>
<path fill="none" stroke="black" d="M791.126,-976.922C797.94,-962.036 807.011,-939.653 810.741,-919 822.667,-852.957 850.659,-670.949 810.741,-617 777.292,-571.794 735.899,-612.123 689.741,-580 672.772,-568.19 656.933,-553.744 642.438,-538.16"/>
</g>
<!-- ActiveRecord::Base&#45;&gt;User -->
<g id="edge19" class="edge"><title>ActiveRecord::Base&#45;&gt;User</title>
<path fill="none" stroke="black" d="M808.95,-977.705C822.033,-967.969 836.569,-954.32 843.741,-938 904.536,-799.658 859.997,-748.234 843.741,-598 843.083,-591.918 842.318,-585.752 841.464,-579.539"/>
</g>
<!-- ActiveRecord::Base&#45;&gt;Saran -->
<g id="edge20" class="edge"><title>ActiveRecord::Base&#45;&gt;Saran</title>
<path fill="none" stroke="black" d="M845.635,-983.595C877.275,-975.634 914.394,-961.8 940.741,-938 972.779,-909.059 993.12,-864.575 1005.27,-828.509"/>
</g>
<!-- ActiveRecord::Base&#45;&gt;Berita -->
<g id="edge21" class="edge"><title>ActiveRecord::Base&#45;&gt;Berita</title>
<path fill="none" stroke="black" d="M863.557,-993.118C932.113,-988.393 1029.59,-971.825 1095.74,-919 1124.11,-896.351 1142.41,-860.057 1153.72,-828.844"/>
</g>
</g>
</svg>
