<?xml version="1.0" encoding="UTF-8" standalone="no"?>
<!DOCTYPE svg PUBLIC "-//W3C//DTD SVG 1.1//EN"
 "http://www.w3.org/Graphics/SVG/1.1/DTD/svg11.dtd">
<!-- Generated by graphviz version 2.38.0 (20140413.2041)
 -->
<!-- Title: models_diagram Pages: 1 -->
<svg width="656pt" height="319pt"
 viewBox="0.00 0.00 655.72 319.00" xmlns="http://www.w3.org/2000/svg" xmlns:xlink="http://www.w3.org/1999/xlink">
<g id="graph0" class="graph" transform="scale(1 1) rotate(0) translate(4 315)">
<title>models_diagram</title>
<polygon fill="none" stroke="none" points="-4,4 -4,-315 651.72,-315 651.72,4 -4,4"/>
<!-- _diagram_info -->
<g id="node1" class="node"><title>_diagram_info</title>
<text text-anchor="start" x="59.2224" y="-296.6" font-family="Times,serif" font-size="13.00">Models diagram</text>
<text text-anchor="start" x="59.2224" y="-282.6" font-family="Times,serif" font-size="13.00">Date: Feb 12 2016 &#45; 01:39</text>
<text text-anchor="start" x="59.2224" y="-268.6" font-family="Times,serif" font-size="13.00">Migration version: 20160105065503</text>
<text text-anchor="start" x="59.2224" y="-254.6" font-family="Times,serif" font-size="13.00">Generated by RailRoady 1.4.2</text>
<text text-anchor="start" x="59.2224" y="-240.6" font-family="Times,serif" font-size="13.00">http://railroady.prestonlee.com</text>
</g>
<!-- Kategori -->
<g id="node2" class="node"><title>Kategori</title>
<ellipse fill="none" stroke="black" cx="329.222" cy="-178" rx="41.6928" ry="18"/>
<text text-anchor="middle" x="329.222" y="-174.3" font-family="Times,serif" font-size="14.00">Kategori</text>
</g>
<!-- Wisata -->
<g id="node8" class="node"><title>Wisata</title>
<ellipse fill="none" stroke="black" cx="246.222" cy="-105" rx="35.9954" ry="18"/>
<text text-anchor="middle" x="246.222" y="-101.3" font-family="Times,serif" font-size="14.00">Wisata</text>
</g>
<!-- Kategori&#45;&gt;Wisata -->
<g id="edge1" class="edge"><title>Kategori&#45;&gt;Wisata</title>
<path fill="none" stroke="#60c539" d="M304.969,-156.253C294.412,-147.222 282.044,-136.643 271.386,-127.526"/>
<ellipse fill="none" stroke="#60c539" cx="308.173" cy="-158.994" rx="4.00002" ry="4.00002"/>
<polygon fill="#60c539" stroke="#60c539" points="271.227,-127.39 266.553,-117.47 267.428,-124.14 263.628,-120.889 263.628,-120.889 263.628,-120.889 267.428,-124.14 260.703,-124.309 271.227,-127.39 271.227,-127.39"/>
</g>
<!-- Admin -->
<g id="node3" class="node"><title>Admin</title>
<ellipse fill="none" stroke="black" cx="60.2224" cy="-178" rx="35.9954" ry="18"/>
<text text-anchor="middle" x="60.2224" y="-174.3" font-family="Times,serif" font-size="14.00">Admin</text>
</g>
<!-- GuideWisata -->
<g id="node4" class="node"><title>GuideWisata</title>
<ellipse fill="none" stroke="black" cx="69.2224" cy="-18" rx="57.3905" ry="18"/>
<text text-anchor="middle" x="69.2224" y="-14.3" font-family="Times,serif" font-size="14.00">GuideWisata</text>
</g>
<!-- Daerah -->
<g id="node5" class="node"><title>Daerah</title>
<ellipse fill="none" stroke="black" cx="233.222" cy="-178" rx="36.2938" ry="18"/>
<text text-anchor="middle" x="233.222" y="-174.3" font-family="Times,serif" font-size="14.00">Daerah</text>
</g>
<!-- Daerah&#45;&gt;Wisata -->
<g id="edge5" class="edge"><title>Daerah&#45;&gt;Wisata</title>
<path fill="none" stroke="#b31fa6" d="M237.838,-151.791C238.957,-145.683 240.156,-139.13 241.289,-132.946"/>
<ellipse fill="none" stroke="#b31fa6" cx="237.09" cy="-155.878" rx="4.00001" ry="4.00001"/>
<polygon fill="#b31fa6" stroke="#b31fa6" points="241.303,-132.865 247.531,-123.839 242.204,-127.947 243.104,-123.029 243.104,-123.029 243.104,-123.029 242.204,-127.947 238.678,-122.218 241.303,-132.865 241.303,-132.865"/>
</g>
<!-- Review -->
<g id="node6" class="node"><title>Review</title>
<ellipse fill="none" stroke="black" cx="380.222" cy="-18" rx="37.8943" ry="18"/>
<text text-anchor="middle" x="380.222" y="-14.3" font-family="Times,serif" font-size="14.00">Review</text>
</g>
<!-- Guide -->
<g id="node7" class="node"><title>Guide</title>
<ellipse fill="none" stroke="black" cx="146.222" cy="-178" rx="32.4942" ry="18"/>
<text text-anchor="middle" x="146.222" y="-174.3" font-family="Times,serif" font-size="14.00">Guide</text>
</g>
<!-- Guide&#45;&gt;GuideWisata -->
<g id="edge8" class="edge"><title>Guide&#45;&gt;GuideWisata</title>
<path fill="none" stroke="#cafae9" d="M132.49,-153.606C130.337,-149.758 128.179,-145.79 126.222,-142 109.257,-109.137 91.6426,-70.2734 80.5681,-45.1586"/>
<ellipse fill="none" stroke="#cafae9" cx="134.592" cy="-157.3" rx="4.00002" ry="4.00002"/>
<polygon fill="#cafae9" stroke="#cafae9" points="80.5372,-45.088 80.6415,-34.1226 78.5289,-40.5091 76.5205,-35.9302 76.5205,-35.9302 76.5205,-35.9302 78.5289,-40.5091 72.3995,-37.7377 80.5372,-45.088 80.5372,-45.088"/>
</g>
<!-- Guide&#45;&gt;Review -->
<g id="edge10" class="edge"><title>Guide&#45;&gt;Review</title>
<path fill="none" stroke="#1dbfa7" d="M179.081,-163.555C182.165,-162.337 185.248,-161.136 188.222,-160 233.664,-142.649 255.131,-155.611 291.222,-123 316.445,-100.21 301.575,-79.3503 324.222,-54 330.207,-47.3017 337.773,-41.4253 345.392,-36.495"/>
<ellipse fill="none" stroke="#1dbfa7" cx="175.192" cy="-165.106" rx="4.00001" ry="4.00001"/>
<polygon fill="#1dbfa7" stroke="#1dbfa7" points="345.703,-36.308 356.591,-35.0044 349.986,-33.7287 354.27,-31.1494 354.27,-31.1494 354.27,-31.1494 349.986,-33.7287 351.948,-27.2943 345.703,-36.308 345.703,-36.308"/>
</g>
<!-- Guide&#45;&gt;Wisata -->
<g id="edge9" class="edge"><title>Guide&#45;&gt;Wisata</title>
<path fill="none" stroke="#b7b474" d="M173.776,-157.437C187.564,-147.647 204.227,-135.817 218.094,-125.971"/>
<polygon fill="#b7b474" stroke="#b7b474" points="173.657,-157.521 162.898,-159.641 169.58,-160.416 165.503,-163.31 165.503,-163.31 165.503,-163.31 169.58,-160.416 168.109,-166.98 173.657,-157.521 173.657,-157.521"/>
<polygon fill="#b7b474" stroke="#b7b474" points="218.162,-125.923 228.921,-123.803 222.239,-123.028 226.316,-120.133 226.316,-120.133 226.316,-120.133 222.239,-123.028 223.711,-116.464 218.162,-125.923 218.162,-125.923"/>
</g>
<!-- ActsAsVotable::Vote -->
<g id="node13" class="node"><title>ActsAsVotable::Vote</title>
<ellipse fill="none" stroke="black" cx="231.222" cy="-18" rx="86.3847" ry="18"/>
<text text-anchor="middle" x="231.222" y="-14.3" font-family="Times,serif" font-size="14.00">ActsAsVotable::Vote</text>
</g>
<!-- Guide&#45;&gt;ActsAsVotable::Vote -->
<g id="edge11" class="edge"><title>Guide&#45;&gt;ActsAsVotable::Vote</title>
<path fill="none" stroke="#4297cc" d="M141.749,-151.982C139.601,-133.146 139.314,-107.207 149.222,-87 158.652,-67.7688 176.332,-52.0209 192.868,-40.5405"/>
<ellipse fill="none" stroke="#4297cc" cx="142.305" cy="-156.126" rx="4.00001" ry="4.00001"/>
<polygon fill="#4297cc" stroke="#4297cc" points="193.017,-40.442 203.841,-38.6849 197.189,-37.6861 201.361,-34.9301 201.361,-34.9301 201.361,-34.9301 197.189,-37.6861 198.88,-31.1754 193.017,-40.442 193.017,-40.442"/>
<text text-anchor="middle" x="175.222" y="-101.3" font-family="Times,serif" font-size="14.00">votes_for</text>
</g>
<!-- Wisata&#45;&gt;GuideWisata -->
<g id="edge14" class="edge"><title>Wisata&#45;&gt;GuideWisata</title>
<path fill="none" stroke="#bd5d96" d="M213.716,-88.3897C184.044,-74.1403 140.12,-53.0469 108.495,-37.8599"/>
<ellipse fill="none" stroke="#bd5d96" cx="217.632" cy="-90.2702" rx="4.00002" ry="4.00002"/>
<polygon fill="#bd5d96" stroke="#bd5d96" points="108.119,-37.6794 101.053,-29.2939 103.612,-35.5149 99.1049,-33.3504 99.1049,-33.3504 99.1049,-33.3504 103.612,-35.5149 97.1569,-37.4069 108.119,-37.6794 108.119,-37.6794"/>
</g>
<!-- Wisata&#45;&gt;Review -->
<g id="edge13" class="edge"><title>Wisata&#45;&gt;Review</title>
<path fill="none" stroke="#c30e5b" d="M266.132,-82.0327C275.514,-72.5596 287.261,-61.8725 299.222,-54 311.888,-45.6644 326.868,-38.5425 340.479,-32.9418"/>
<ellipse fill="none" stroke="#c30e5b" cx="263.108" cy="-85.1636" rx="4.00002" ry="4.00002"/>
<polygon fill="#c30e5b" stroke="#c30e5b" points="340.797,-32.8161 351.751,-33.3213 345.446,-30.9765 350.096,-29.1369 350.096,-29.1369 350.096,-29.1369 345.446,-30.9765 348.44,-24.9525 340.797,-32.8161 340.797,-32.8161"/>
</g>
<!-- Wisata&#45;&gt;ActsAsVotable::Vote -->
<g id="edge15" class="edge"><title>Wisata&#45;&gt;ActsAsVotable::Vote</title>
<path fill="none" stroke="#e0f808" d="M225.954,-82.0761C223.193,-77.9889 220.777,-73.5603 219.222,-69 216.727,-61.6805 217.295,-53.5896 219.138,-46.0873"/>
<ellipse fill="none" stroke="#e0f808" cx="228.439" cy="-85.3934" rx="4.00002" ry="4.00002"/>
<polygon fill="#e0f808" stroke="#e0f808" points="219.208,-45.8681 226.557,-37.7291 220.741,-41.1088 222.274,-36.3495 222.274,-36.3495 222.274,-36.3495 220.741,-41.1088 217.991,-34.97 219.208,-45.8681 219.208,-45.8681"/>
<text text-anchor="middle" x="245.222" y="-57.8" font-family="Times,serif" font-size="14.00">votes_for</text>
</g>
<!-- User -->
<g id="node9" class="node"><title>User</title>
<ellipse fill="none" stroke="black" cx="387.222" cy="-105" rx="27.0966" ry="18"/>
<text text-anchor="middle" x="387.222" y="-101.3" font-family="Times,serif" font-size="14.00">User</text>
</g>
<!-- User&#45;&gt;Review -->
<g id="edge17" class="edge"><title>User&#45;&gt;Review</title>
<path fill="none" stroke="#2801b5" d="M385.138,-78.6937C384.3,-68.5119 383.331,-56.7466 382.476,-46.3666"/>
<ellipse fill="none" stroke="#2801b5" cx="385.478" cy="-82.8125" rx="4" ry="4"/>
<polygon fill="#2801b5" stroke="#2801b5" points="382.458,-46.1417 386.122,-35.8061 382.047,-41.1586 381.637,-36.1754 381.637,-36.1754 381.637,-36.1754 382.047,-41.1586 377.152,-36.5448 382.458,-46.1417 382.458,-46.1417"/>
</g>
<!-- User&#45;&gt;ActsAsVotable::Vote -->
<g id="edge18" class="edge"><title>User&#45;&gt;ActsAsVotable::Vote</title>
<path fill="none" stroke="#78ae35" d="M359.76,-89.0364C334.795,-75.4337 297.701,-55.2225 269.77,-40.0034"/>
<ellipse fill="none" stroke="#78ae35" cx="363.316" cy="-90.9739" rx="4.00002" ry="4.00002"/>
<polygon fill="#78ae35" stroke="#78ae35" points="269.461,-39.8349 262.832,-31.0988 265.07,-37.4426 260.679,-35.0503 260.679,-35.0503 260.679,-35.0503 265.07,-37.4426 258.526,-39.0018 269.461,-39.8349 269.461,-39.8349"/>
<text text-anchor="middle" x="332.722" y="-57.8" font-family="Times,serif" font-size="14.00">votes</text>
</g>
<!-- Saran -->
<g id="node10" class="node"><title>Saran</title>
<ellipse fill="none" stroke="black" cx="534.222" cy="-178" rx="30.5947" ry="18"/>
<text text-anchor="middle" x="534.222" y="-174.3" font-family="Times,serif" font-size="14.00">Saran</text>
</g>
<!-- Berita -->
<g id="node11" class="node"><title>Berita</title>
<ellipse fill="none" stroke="black" cx="615.222" cy="-178" rx="32.4942" ry="18"/>
<text text-anchor="middle" x="615.222" y="-174.3" font-family="Times,serif" font-size="14.00">Berita</text>
</g>
<!-- ActiveRecord::Base -->
<g id="node12" class="node"><title>ActiveRecord::Base</title>
<ellipse fill="none" stroke="black" cx="364.222" cy="-272" rx="81.4863" ry="18"/>
<text text-anchor="middle" x="364.222" y="-268.3" font-family="Times,serif" font-size="14.00">ActiveRecord::Base</text>
</g>
<!-- ActiveRecord::Base&#45;&gt;Kategori -->
<g id="edge2" class="edge"><title>ActiveRecord::Base&#45;&gt;Kategori</title>
<path fill="none" stroke="black" d="M357.639,-253.696C351.342,-237.143 341.905,-212.338 335.658,-195.916"/>
</g>
<!-- ActiveRecord::Base&#45;&gt;Admin -->
<g id="edge3" class="edge"><title>ActiveRecord::Base&#45;&gt;Admin</title>
<path fill="none" stroke="black" d="M331.433,-255.437C314.608,-247.895 293.62,-239.161 274.222,-233 200.939,-209.725 178.938,-217.867 105.222,-196 99.2976,-194.242 93.0379,-192.081 87.1322,-189.895"/>
</g>
<!-- ActiveRecord::Base&#45;&gt;GuideWisata -->
<g id="edge4" class="edge"><title>ActiveRecord::Base&#45;&gt;GuideWisata</title>
<path fill="none" stroke="black" d="M332.449,-255.213C315.536,-247.423 294.161,-238.533 274.222,-233 218.2,-217.453 53.3158,-239.922 15.2224,-196 -26.1407,-148.308 27.8105,-69.5464 55.1239,-35.511"/>
</g>
<!-- ActiveRecord::Base&#45;&gt;Daerah -->
<g id="edge6" class="edge"><title>ActiveRecord::Base&#45;&gt;Daerah</title>
<path fill="none" stroke="black" d="M340.802,-254.552C315.927,-237.083 277.011,-209.752 253.433,-193.194"/>
</g>
<!-- ActiveRecord::Base&#45;&gt;Review -->
<g id="edge7" class="edge"><title>ActiveRecord::Base&#45;&gt;Review</title>
<path fill="none" stroke="black" d="M388.082,-254.789C401.285,-244.719 417.035,-230.719 427.222,-215 432.038,-207.569 431.873,-204.752 433.222,-196 440.634,-147.92 439.904,-132.698 423.222,-87 416.182,-67.7121 403.049,-48.1537 393.141,-34.9952"/>
</g>
<!-- ActiveRecord::Base&#45;&gt;Guide -->
<g id="edge12" class="edge"><title>ActiveRecord::Base&#45;&gt;Guide</title>
<path fill="none" stroke="black" d="M328.312,-255.835C311.832,-248.876 292.036,-240.518 274.222,-233 238.447,-217.901 197.043,-200.435 171.241,-189.552"/>
</g>
<!-- ActiveRecord::Base&#45;&gt;Wisata -->
<g id="edge16" class="edge"><title>ActiveRecord::Base&#45;&gt;Wisata</title>
<path fill="none" stroke="black" d="M373.362,-253.972C384.475,-230.691 399.506,-188.562 380.222,-160 358.188,-127.364 312.781,-114.448 280.956,-109.339"/>
</g>
<!-- ActiveRecord::Base&#45;&gt;User -->
<g id="edge19" class="edge"><title>ActiveRecord::Base&#45;&gt;User</title>
<path fill="none" stroke="black" d="M384.614,-254.371C395.347,-244.26 407.452,-230.358 413.222,-215 424.79,-184.213 423.551,-172.225 413.222,-141 410.75,-133.526 405.996,-126.348 401.221,-120.46"/>
</g>
<!-- ActiveRecord::Base&#45;&gt;Saran -->
<g id="edge20" class="edge"><title>ActiveRecord::Base&#45;&gt;Saran</title>
<path fill="none" stroke="black" d="M403.799,-256.277C429.05,-246.165 462.023,-231.6 489.222,-215 499.47,-208.746 509.999,-200.444 518.293,-193.39"/>
</g>
<!-- ActiveRecord::Base&#45;&gt;Berita -->
<g id="edge21" class="edge"><title>ActiveRecord::Base&#45;&gt;Berita</title>
<path fill="none" stroke="black" d="M406.686,-256.534C449.268,-241.863 516.609,-218.216 574.222,-196 579.399,-194.004 584.907,-191.786 590.15,-189.629"/>
</g>
</g>
</svg>
